<?xml version="1.0" encoding="utf-8"?><svg fill="none" viewBox="0 0 1080 808" xmlns="http://www.w3.org/2000/svg"><defs /><g transform="matrix(1,0,0,1,540,416)" id="Layer 1"><g id="Group 3"><g id="Group 1"><path fill="#5efca1" fill-opacity="1" d="M206.134,291.425C298.325,226.759,358.603,119.692,358.603,-1.468C358.603,-198.928,198.53,-359,1.07,-359C-196.39,-359,-356.462,-198.928,-356.462,-1.468C-356.462,119.662,-296.213,226.708,-204.06,291.378C-142.074,290.475,-73.157,289.972,-0.546,289.972C73.302,289.972,143.334,290.493,206.134,291.425Z" /></g></g><g id="Group 2" transform="matrix(1,0,0,1,0,0)" opacity="0.3"><g id="Group 1"><path fill="#000072" fill-opacity="1" d="M489.471,305.587C489.471,296.963,270.083,289.972,-0.546,289.972C-271.175,289.972,-490.563,296.963,-490.563,305.587C-490.563,310.572,-417.252,315.012,-303.11,317.871C-278.48,323.461,-182.985,327.628,-68.936,327.628C26.57,327.628,109.063,324.706,147.827,320.473C345.919,318.47,489.471,312.563,489.471,305.587Z" /></g></g><g id="Group 1"><g id="Group 2"><g id="Group 1"><path fill="#f5f5f5" fill-opacity="1" d="M-445.203,295.172L444.111,295.172L-445.203,295.172Z" /></g></g><g id="Group 1"><g id="Group 1"><path fill="#000072" fill-opacity="1" d="M-445.203,293.408C-445.203,293.408,-441.73,292.806,-435.216,292.102C-428.702,291.394,-419.15,290.582,-406.991,290.113C-394.832,289.69,-380.068,289.427,-363.133,289.459C-346.198,289.503,-327.091,289.862,-306.248,289.876C-222.875,289.877,-111.71,289.878,-0.546,289.879C110.618,289.879,221.783,289.879,305.156,289.879C325.999,289.877,345.106,289.874,362.041,289.872C370.509,289.849,378.433,289.663,385.761,289.553C393.089,289.438,399.82,289.467,405.899,289.629C411.978,289.796,417.406,290.028,422.128,290.403C426.85,290.766,430.867,291.221,434.124,291.661C440.638,292.55,444.111,293.408,444.111,293.408C445.085,293.649,445.68,294.633,445.44,295.607C445.273,296.284,444.744,296.779,444.111,296.937C444.111,296.937,440.638,297.794,434.124,298.683C430.867,299.123,426.85,299.578,422.128,299.941C417.406,300.316,411.978,300.547,405.899,300.715C399.82,300.877,393.089,300.906,385.761,300.791C378.433,300.681,370.509,300.495,362.041,300.472C345.106,300.47,325.999,300.467,305.156,300.465C221.783,300.465,110.618,300.465,-0.546,300.465C-111.71,300.466,-222.875,300.467,-306.248,300.468C-327.091,300.482,-346.198,300.841,-363.133,300.885C-380.068,300.917,-394.832,300.654,-406.991,300.231C-419.15,299.762,-428.702,298.95,-435.216,298.242C-441.73,297.538,-445.203,296.937,-445.203,296.937C-446.178,296.768,-446.831,295.84,-446.662,294.866C-446.529,294.101,-445.926,293.535,-445.203,293.408Z" /></g></g></g></g><g id="Layer 2"><g transform="translate(511.405,710.602)"><g transform="rotate(0)"><animateTransform repeatCount="indefinite" type="rotate" attributeName="transform" dur="5s" begin="0.333s" calcMode="spline" values="0; 8; 0; 8; 0; 0; 8; 0; 8; 0" keyTimes="0; 0.1; 0.2; 0.3; 0.4; 0.6; 0.7; 0.8; 0.9; 1" keySplines="0.333 0 0.667 1; 0.333 0 0.667 1; 0.297 0 0.667 1; 0.333 0 0.667 1; 0.182 0 0.667 1; 0.333 0 0.667 1; 0.333 0 0.667 1; 0.297 0 0.667 1; 0.333 0 0.667 1" fill="freeze" /><g transform="scale(1,1) translate(28.595,-294.602)"><g id="Group 27"><g id="Group 2"><path fill="#909090" fill-opacity="1" d="M-371.721,264.956L-365.523,281.781C-364.369,284.913,-361.59,287.159,-358.286,287.631L-352.301,288.486C-349.305,288.914,-346.292,287.821,-344.267,285.571L-326.751,266.109L-355.578,248.813L-371.721,264.956Z" /></g><g id="Group 1"><path fill="#000072" fill-opacity="1" d="M-366.143,266.181L-361.009,280.118C-360.466,281.593,-359.161,282.647,-357.605,282.869L-351.62,283.724C-350.222,283.924,-348.786,283.401,-347.843,282.353L-334.232,267.231L-354.832,254.871L-366.143,266.181ZM-351.016,293.388L-351.016,293.388C-351.671,293.388,-352.332,293.342,-352.981,293.249L-358.966,292.394C-364.027,291.671,-368.27,288.241,-370.037,283.444L-376.235,266.619C-376.884,264.858,-376.45,262.881,-375.123,261.554L-358.98,245.411C-357.419,243.85,-354.996,243.552,-353.103,244.688L-324.276,261.984C-323.044,262.723,-322.206,263.975,-321.993,265.396C-321.78,266.817,-322.214,268.26,-323.175,269.328L-340.691,288.79C-343.321,291.712,-347.085,293.388,-351.016,293.388Z" /></g></g><g id="Group 26" transform="matrix(1,0,0,1,0,0)" opacity="0.4"><g id="Group 1"><path fill="#000072" fill-opacity="1" d="M-355.578,248.813L-357.493,250.727L-336.497,263.325L-354.013,282.787C-356.038,285.037,-359.051,286.129,-362.047,285.701L-362.835,285.589C-361.559,286.66,-359.996,287.387,-358.286,287.631L-352.301,288.486C-349.305,288.914,-346.292,287.821,-344.267,285.571L-326.751,266.109L-355.578,248.813Z" /></g></g><g id="Group 25" transform="matrix(1,0,0,1,0,0)" opacity="0.5"><g id="Group 1"><path fill="#ffffff" fill-opacity="1" d="M-353.42,282.806C-354.953,282.587,-356.238,281.548,-356.773,280.096L-361.893,266.197L-352.212,256.516L-354.822,254.949L-366.07,266.197L-360.95,280.096C-360.415,281.548,-359.13,282.587,-357.597,282.806L-351.611,283.662C-350.858,283.769,-350.112,283.654,-349.431,283.376L-353.42,282.806Z" /></g></g><g id="Group 24"><g id="Group 2"><path fill="#909090" fill-opacity="1" d="M-319.94,273.944L-311.942,288.659C-310,292.232,-306.255,294.45,-302.189,294.438L-298.383,294.427C-294.695,294.416,-291.255,292.568,-289.21,289.5L-275.274,268.593L-306.297,255.639L-319.94,273.944Z" /></g><g id="Group 1"><path fill="#000072" fill-opacity="1" d="M-314.243,274.351L-307.715,286.361C-306.62,288.376,-304.515,289.628,-302.222,289.628L-298.397,289.616C-296.309,289.61,-294.371,288.569,-293.213,286.832L-282.515,270.782L-304.684,261.526L-314.243,274.351ZM-302.222,299.249C-308.044,299.249,-313.389,296.071,-316.169,290.956L-324.167,276.242C-325.063,274.593,-324.918,272.574,-323.797,271.069L-310.154,252.764C-308.835,250.994,-306.481,250.349,-304.443,251.2L-273.421,264.153C-272.095,264.707,-271.085,265.824,-270.669,267.2C-270.253,268.575,-270.474,270.065,-271.271,271.261L-285.207,292.168C-288.147,296.579,-293.068,299.222,-298.369,299.238L-302.222,299.249Z" /></g></g><g id="Group 23" transform="matrix(1,0,0,1,0,0)" opacity="0.4"><g id="Group 1"><path fill="#000072" fill-opacity="1" d="M-306.297,255.639L-308.16,258.14L-286.413,267.22L-300.349,288.127C-302.078,290.721,-304.807,292.428,-307.837,292.905C-306.155,293.896,-304.212,294.444,-302.189,294.438L-298.383,294.427C-294.695,294.416,-291.255,292.568,-289.21,289.5L-275.274,268.593L-306.297,255.639Z" /></g></g><g id="Group 22" transform="matrix(1,0,0,1,0,0)" opacity="0.5"><g id="Group 1"><path fill="#ffffff" fill-opacity="1" d="M-303.483,286.351L-309.992,274.375L-301.467,262.937L-304.663,261.603L-314.169,274.356L-307.661,286.332C-306.576,288.327,-304.491,289.566,-302.219,289.566C-302.213,289.566,-302.208,289.566,-302.202,289.566L-298.498,289.554C-300.589,289.4,-302.471,288.211,-303.483,286.351Z" /></g></g><g id="Group 21"><g id="Group 2"><path fill="#909090" fill-opacity="1" d="M-268.051,273.944L-259.738,289.238C-257.99,292.454,-254.619,294.451,-250.959,294.44L-245.904,294.425C-242.585,294.415,-239.489,292.752,-237.648,289.99L-223.385,268.593L-254.407,255.639L-268.051,273.944Z" /></g><g id="Group 1"><path fill="#000072" fill-opacity="1" d="M-262.354,274.351L-255.511,286.94C-254.609,288.599,-252.877,289.63,-250.989,289.63L-250.989,294.44L-250.974,289.63L-245.919,289.614C-244.2,289.609,-242.604,288.752,-241.651,287.322L-230.626,270.782L-252.795,261.526L-262.354,274.351ZM-250.989,299.251C-256.406,299.251,-261.378,296.294,-263.965,291.535L-272.278,276.242C-273.174,274.593,-273.029,272.574,-271.908,271.069L-258.265,252.764C-256.946,250.994,-254.592,250.349,-252.554,251.2L-221.531,264.153C-220.205,264.707,-219.196,265.825,-218.78,267.2C-218.364,268.576,-218.585,270.065,-219.382,271.261L-233.645,292.659C-236.381,296.763,-240.958,299.221,-245.89,299.236L-250.945,299.251C-250.95,299.251,-250.984,299.251,-250.989,299.251Z" /></g></g><g id="Group 20" transform="matrix(1,0,0,1,0,0)" opacity="0.4"><g id="Group 1"><path fill="#000072" fill-opacity="1" d="M-254.407,255.639L-257.061,259.2L-234.524,268.61L-248.787,290.008C-250.051,291.904,-251.913,293.265,-254.026,293.946C-253.047,294.26,-252.019,294.443,-250.959,294.44L-245.904,294.425C-242.585,294.415,-239.489,292.752,-237.648,289.99L-223.385,268.593L-254.407,255.639Z" /></g></g><g id="Group 19" transform="matrix(1,0,0,1,0,0)" opacity="0.5"><g id="Group 1"><path fill="#ffffff" fill-opacity="1" d="M-252.671,286.928L-259.495,274.373L-250.64,262.494L-252.774,261.603L-262.28,274.356L-255.456,286.91C-254.565,288.55,-252.854,289.567,-250.989,289.567C-250.984,289.567,-250.979,289.567,-250.974,289.567L-248.57,289.56C-250.29,289.436,-251.839,288.459,-252.671,286.928Z" /></g></g><g id="Group 18"><g id="Group 2"><path fill="#909090" fill-opacity="1" d="M-213.856,273.944L-205.976,288.441C-203.962,292.147,-200.076,294.451,-195.858,294.438L-192.519,294.428C-188.693,294.417,-185.125,292.499,-183.003,289.316L-169.19,268.593L-200.212,255.639L-213.856,273.944Z" /></g><g id="Group 1"><path fill="#000072" fill-opacity="1" d="M-208.159,274.351L-201.749,286.144C-200.581,288.292,-198.337,289.627,-195.892,289.627L-192.533,289.617C-190.307,289.61,-188.241,288.5,-187.006,286.648L-176.431,270.782L-198.6,261.526L-208.159,274.351ZM-195.892,299.248C-201.866,299.248,-207.349,295.988,-210.202,290.739L-218.082,276.242C-218.978,274.593,-218.834,272.574,-217.713,271.069L-204.069,252.764C-202.75,250.994,-200.396,250.349,-198.358,251.2L-167.336,264.153C-166.01,264.707,-165.001,265.824,-164.585,267.2C-164.169,268.575,-164.39,270.065,-165.187,271.261L-179,291.984C-182.017,296.51,-187.066,299.222,-192.505,299.238L-195.892,299.248Z" /></g></g><g id="Group 17" transform="matrix(1,0,0,1,0,0)" opacity="0.4"><g id="Group 1"><path fill="#000072" fill-opacity="1" d="M-200.212,255.639L-202.867,259.202L-180.329,268.613L-194.142,289.337C-195.515,291.396,-197.498,292.914,-199.759,293.74C-198.524,294.183,-197.213,294.442,-195.858,294.438L-192.519,294.428C-188.694,294.417,-185.125,292.499,-183.003,289.316L-169.19,268.593L-200.212,255.639Z" /></g></g><g id="Group 16" transform="matrix(1,0,0,1,0,0)" opacity="0.5"><g id="Group 1"><path fill="#ffffff" fill-opacity="1" d="M-197.516,286.134L-203.908,274.376L-195.382,262.938L-198.579,261.603L-208.085,274.356L-201.694,286.113C-200.537,288.244,-198.314,289.564,-195.891,289.564C-195.885,289.564,-195.878,289.564,-195.872,289.564L-192.533,289.555C-192.468,289.555,-192.404,289.544,-192.339,289.542C-194.513,289.335,-196.46,288.079,-197.516,286.134Z" /></g></g><g id="Group 15"><g id="Group 2"><path fill="#909090" fill-opacity="1" d="M-91.396,289.846L-83.447,289.846C-79.546,289.846,-76.111,287.275,-75.01,283.533L-71.102,270.243L-52.076,270.243L-43.655,283.074C-41.354,286.581,-37.442,288.693,-33.248,288.693L-27.865,288.693C-22.663,288.693,-18.01,285.458,-16.197,280.582L-2.493,243.722L-117.802,252.947L-99.009,285.453C-97.437,288.171,-94.536,289.846,-91.396,289.846Z" /></g><g id="Group 1"><path fill="#000072" fill-opacity="1" d="M-109.72,257.189L-94.79,283.014C-94.092,284.222,-92.791,284.972,-91.396,284.972L-83.447,284.972C-81.72,284.972,-80.173,283.815,-79.686,282.158L-75.777,268.868C-75.167,266.794,-73.264,265.37,-71.102,265.37L-52.076,265.37C-50.434,265.37,-48.902,266.196,-48.001,267.569L-39.581,280.4C-38.176,282.541,-35.809,283.819,-33.248,283.819L-27.865,283.819C-24.716,283.819,-21.863,281.836,-20.765,278.884L-9.725,249.189L-109.72,257.189ZM-83.447,294.719L-91.396,294.719C-96.26,294.719,-100.794,292.103,-103.228,287.892L-122.021,255.386C-122.858,253.938,-122.894,252.163,-122.117,250.682C-121.34,249.201,-119.857,248.222,-118.19,248.089L-2.881,238.864C-1.222,238.731,0.391,239.455,1.395,240.783C2.399,242.111,2.655,243.859,2.075,245.42L-11.629,282.28C-14.138,289.03,-20.663,293.566,-27.865,293.566L-33.248,293.566C-39.104,293.566,-44.517,290.643,-47.73,285.748L-54.707,275.116L-67.455,275.116L-70.335,284.908C-72.034,290.684,-77.426,294.719,-83.447,294.719Z" /></g></g><g id="Group 14" transform="matrix(1,0,0,1,0,0)" opacity="0.4"><g id="Group 1"><path fill="#000072" fill-opacity="1" d="M-86.149,283.533C-87.095,286.749,-89.769,289.087,-92.976,289.685C-92.458,289.78,-91.933,289.846,-91.396,289.846L-83.447,289.846C-79.546,289.846,-76.111,287.275,-75.01,283.533L-71.102,270.243L-82.241,270.243L-86.149,283.533Z" /></g></g><g id="Group 13" transform="matrix(1,0,0,1,0,0)" opacity="0.4"><g id="Group 1"><path fill="#000072" fill-opacity="1" d="M-13.973,244.64L-27.336,280.582C-28.812,284.552,-32.182,287.399,-36.186,288.333C-35.234,288.565,-34.25,288.693,-33.248,288.693L-27.865,288.693C-22.663,288.693,-18.01,285.458,-16.197,280.582L-2.493,243.722L-13.973,244.64Z" /></g></g><g id="Group 12" transform="matrix(1,0,0,1,0,0)" opacity="0.4"><g id="Group 1"><path fill="#ffffff" fill-opacity="1" d="M-90.612,283.014L-105.543,257.189L-9.852,249.534L-9.724,249.19L-109.72,257.189L-94.79,283.014C-94.092,284.221,-92.791,284.972,-91.396,284.972L-87.219,284.972C-88.614,284.972,-89.914,284.221,-90.612,283.014Z" /></g></g><g id="Group 11" transform="matrix(1,0,0,1,0,0)" opacity="0.4"><g id="Group 1"><path fill="#ffffff" fill-opacity="1" d="M-35.404,280.401L-43.824,267.569C-44.725,266.196,-46.256,265.369,-47.898,265.369L-52.075,265.369C-50.433,265.369,-48.902,266.196,-48.001,267.569L-39.581,280.401C-38.176,282.541,-35.808,283.819,-33.248,283.819L-29.071,283.819C-31.631,283.819,-33.999,282.541,-35.404,280.401Z" /></g></g><g id="Group 10"><g id="Group 2"><path fill="#4dd0e1" fill-opacity="1" d="M-112.613,136.484C-112.613,136.484,-78.02,174.537,-42.274,167.618C-42.274,167.618,-7.105,160.122,-1.34,128.989C-1.34,128.989,45.937,190.103,18.263,243.145C18.263,243.145,19.416,265.054,4.426,267.36C4.426,267.36,-129.332,262.748,-188.14,269.667C-188.14,269.667,-325.337,281.799,-381.417,261.563C-397.158,255.883,-404.191,237.234,-395.744,222.787C-389.686,212.426,-375.789,202.414,-346.114,198.175C-346.114,198.175,-206.59,165.889,-158.16,132.449C-158.16,132.449,-136.251,122.07,-112.613,136.484Z" /></g><g id="Group 1"><path fill="#000072" fill-opacity="1" d="M-155.812,136.672C-176.403,150.755,-214.452,166.158,-268.919,182.46C-309.53,194.615,-344.68,202.781,-345.03,202.862C-345.164,202.893,-345.298,202.918,-345.434,202.937C-369.422,206.364,-384.952,213.86,-391.591,225.215C-394.84,230.772,-395.429,237.476,-393.207,243.608C-390.932,249.886,-386.039,254.781,-379.784,257.038C-359.071,264.512,-322.879,268.463,-275.123,268.463C-230.552,268.463,-190.503,265.043,-188.629,264.88C-166.938,262.334,-132.969,261.043,-87.66,261.043C-42.483,261.043,-0.91,262.371,4.092,262.536C14.076,260.558,13.468,243.571,13.459,243.398C13.414,242.539,13.6,241.683,13.998,240.92C24.779,220.257,24.925,195.766,14.434,168.126C9.957,156.331,4.384,146.435,0.33,139.988C-3.83,149.667,-11.23,157.883,-21.476,164.093C-31.568,170.21,-40.88,172.24,-41.272,172.323C-41.301,172.329,-41.33,172.335,-41.36,172.341C-44.543,172.957,-47.843,173.269,-51.167,173.269C-65.608,173.269,-80.964,167.594,-96.807,156.401C-106.862,149.298,-113.791,142.244,-115.67,140.259C-123.075,135.87,-131.061,133.645,-139.416,133.645C-148.033,133.645,-154.378,136.073,-155.812,136.672ZM-275.123,278.085C-324.678,278.085,-360.99,274.049,-383.05,266.089C-392.002,262.859,-399.001,255.859,-402.253,246.886C-405.452,238.059,-404.593,228.39,-399.897,220.358C-391.723,206.377,-373.928,197.322,-347.003,193.442C-341.045,192.048,-207.193,160.459,-160.893,128.49C-160.679,128.342,-160.454,128.212,-160.219,128.101C-159.867,127.935,-151.472,124.023,-139.416,124.023C-129.06,124.023,-119.199,126.834,-110.108,132.377C-109.716,132.616,-109.361,132.909,-109.053,133.248C-108.778,133.549,-80.99,163.648,-51.167,163.648C-48.475,163.648,-45.811,163.398,-43.247,162.906C-42.694,162.78,-34.676,160.899,-26.218,155.715C-14.963,148.818,-8.184,139.531,-6.07,128.113C-5.725,126.248,-4.316,124.76,-2.472,124.314C-0.63,123.867,1.305,124.546,2.466,126.046C2.967,126.693,14.818,142.144,23.334,164.462C28.374,177.669,31.182,190.545,31.682,202.734C32.297,217.73,29.408,231.697,23.094,244.267C23.09,246.458,22.897,250.963,21.604,255.664C19.026,265.038,13.186,270.88,5.158,272.115C4.861,272.16,4.559,272.179,4.26,272.168C3.824,272.153,-39.896,270.665,-87.66,270.665C-132.645,270.665,-166.262,271.936,-187.578,274.444C-187.624,274.449,-187.671,274.455,-187.717,274.459C-188.127,274.495,-229.256,278.085,-275.123,278.085Z" /></g></g><g id="Group 9" transform="matrix(1,0,0,1,0,0)" opacity="0.5"><g id="Group 1"><path fill="#ffffff" fill-opacity="1" d="M-42.821,178.894C-39.552,178.893,-36.235,178.598,-32.904,177.953C-31.603,177.676,-5.948,171.942,6.304,150.548C4.178,146.521,2.122,143.02,0.351,140.181C-10.526,165.536,-39.865,172.087,-41.259,172.383C-44.59,173.028,-47.906,173.323,-51.175,173.324C-65.481,173.325,-78.983,167.681,-89.947,161.02C-77.926,169.765,-61.021,178.896,-42.821,178.894Z" /></g></g><g id="Group 7" transform="matrix(1,0,0,1,0,0)" opacity="0.5"><g id="Group 1"><path fill="#ffffff" fill-opacity="1" d="M-115.715,140.306C-135.252,128.732,-153.078,135.566,-155.768,136.718C-204.724,170.206,-339.321,201.604,-345.017,202.924C-345.142,202.947,-345.268,202.971,-345.393,202.994C-352.08,203.948,-358.085,205.23,-363.447,206.811C-377.32,210.902,-386.754,217.066,-391.537,225.246C-391.726,225.569,-391.874,225.908,-392.045,226.238C-394.805,231.577,-395.235,237.829,-393.148,243.587C-390.912,249.756,-386.135,254.574,-380.028,256.867C-382.093,254.675,-383.736,252.075,-384.794,249.157C-387.01,243.042,-386.422,236.357,-383.182,230.815C-382.286,229.282,-381.213,227.826,-379.993,226.434C-377.49,225.75,-374.795,224.771,-372.052,223.488C-365.673,220.506,-360.669,216.688,-358.412,213.427C-352.265,211.354,-345.161,209.725,-337.07,208.569C-336.933,208.55,-336.796,208.524,-336.661,208.493C-335.365,208.193,-327.436,206.344,-315.399,203.28L-294.243,256.168L-305.879,208.463C-306.85,204.481,-304.47,200.458,-300.509,199.405C-255.654,187.479,-181.175,165.381,-147.414,142.287C-144.99,141.249,-130.278,135.605,-113.099,142.962C-114.306,141.78,-115.193,140.86,-115.715,140.306Z" /></g></g><g id="Group 6"><g id="Group 1"><g id="Group 6"><g id="Group 1"><path fill="#d4e157" fill-opacity="1" d="M-341.351,199.812L-317.218,259.649L-293.547,259.649L-321.395,194.207L-341.351,199.812Z" /></g></g><g id="Group 5" transform="matrix(1,0,0,1,0,0)" opacity="0.5"><g id="Group 1"><path fill="#ffffff" fill-opacity="1" d="M-320.282,196.823C-329.214,199.121,-336.239,200.836,-340.524,201.862L-337.774,208.679C-337.536,208.644,-337.31,208.603,-337.07,208.569C-336.933,208.55,-336.796,208.524,-336.661,208.493C-335.436,208.209,-328.275,206.539,-317.326,203.769L-320.282,196.823Z" /></g></g><g id="Group 4" transform="matrix(1,0,0,1,0,0)" opacity="0.2"><g id="Group 1"><path fill="#000072" fill-opacity="1" d="M16.44,258.418C-41.943,248.924,-154.849,254.05,-155.984,254.102C-156.035,254.105,-156.087,254.11,-156.138,254.115C-300.367,268.875,-394.07,247.988,-395,247.777C-396.498,247.423,-397.992,248.369,-398.335,249.869C-398.678,251.367,-397.742,252.862,-396.243,253.205C-395.549,253.364,-343.637,264.954,-257.858,264.954C-227.719,264.954,-193.393,263.522,-155.648,259.662C-152.162,259.504,-41.634,254.619,15.546,263.914C17.077,264.171,18.495,263.131,18.741,261.614C18.988,260.095,17.957,258.664,16.44,258.418Z" /></g></g><g id="Group 3"><g id="Group 1"><path fill="#000072" fill-opacity="1" d="M-258.489,262.153C-287.586,262.153,-312.067,260.833,-330.882,259.264C-372.235,255.815,-396,250.44,-396.235,250.386C-397.715,250.047,-398.64,248.573,-398.301,247.093C-397.962,245.613,-396.486,244.688,-395.008,245.027C-394.776,245.08,-371.288,250.385,-330.278,253.797C-292.433,256.946,-231.5,259.08,-156.134,251.365C-156.083,251.36,-156.033,251.356,-155.982,251.354C-154.848,251.301,-41.945,246.175,16.434,255.667C17.933,255.911,18.95,257.323,18.706,258.822C18.462,260.321,17.05,261.337,15.552,261.094C-41.647,251.794,-152.191,256.686,-155.651,256.843C-194.019,260.767,-228.68,262.153,-258.489,262.153Z" /></g></g><g id="Group 2"><g id="Group 2"><path fill="#ffffff" fill-opacity="1" d="M-317.242,257.547L-342.655,197.598L-317.242,257.547Z" /></g><g id="Group 1"><path fill="#000072" fill-opacity="1" d="M-317.241,260.333C-318.325,260.333,-319.356,259.695,-319.806,258.634L-345.219,198.685C-345.819,197.269,-345.158,195.634,-343.742,195.034C-342.326,194.433,-340.691,195.095,-340.091,196.511L-314.678,256.46C-314.078,257.876,-314.739,259.511,-316.155,260.111C-316.51,260.261,-316.879,260.333,-317.241,260.333Z" /></g></g><g id="Group 1"><g id="Group 2"><path fill="#ffffff" fill-opacity="1" d="M-322.383,193.588L-295.378,257.559L-322.383,193.588Z" /></g><g id="Group 1"><path fill="#000072" fill-opacity="1" d="M-295.377,260.345C-296.463,260.345,-297.494,259.705,-297.943,258.642L-324.948,194.671C-325.546,193.254,-324.883,191.621,-323.466,191.023C-322.049,190.425,-320.415,191.088,-319.817,192.505L-292.813,256.476C-292.215,257.893,-292.878,259.526,-294.295,260.124C-294.649,260.273,-295.016,260.345,-295.377,260.345Z" /></g></g></g></g><g id="Group 5"><g id="Group 2"><path fill="#d4e157" fill-opacity="1" d="M-163.349,130.719L-152.262,141.014C-149.201,143.857,-144.729,144.577,-140.93,142.84L-111.034,129.174C-108.6,128.061,-107.44,125.263,-108.376,122.755C-108.999,121.086,-109.76,119.098,-110.559,117.036C-113.524,109.383,-122.266,105.738,-129.792,109.01L-169.114,126.107L-163.349,130.719Z" /></g><g id="Group 1"><path fill="#000072" fill-opacity="1" d="M-162.43,126.996L-161.175,128.001C-161.108,128.054,-161.043,128.11,-160.98,128.168L-149.893,138.463C-148.621,139.645,-146.964,140.295,-145.226,140.295L-145.225,140.295C-144.236,140.295,-143.278,140.086,-142.377,139.674L-112.482,126.008C-111.714,125.657,-111.342,124.762,-111.637,123.972C-112.203,122.455,-112.933,120.544,-113.805,118.293C-115.453,114.038,-119.47,111.288,-124.037,111.288C-125.54,111.288,-127.009,111.595,-128.404,112.202L-162.43,126.996ZM-145.225,147.257L-145.226,147.257C-148.727,147.257,-152.067,145.946,-154.631,143.565L-165.624,133.357L-171.289,128.825C-172.242,128.063,-172.726,126.856,-172.565,125.647C-172.404,124.437,-171.621,123.401,-170.502,122.914L-131.18,105.818C-128.904,104.828,-126.501,104.326,-124.037,104.326C-116.572,104.326,-110.008,108.821,-107.313,115.778C-106.431,118.056,-105.691,119.994,-105.115,121.538C-103.55,125.733,-105.514,130.478,-109.587,132.34L-139.483,146.006C-141.299,146.836,-143.231,147.257,-145.225,147.257Z" /></g></g><g id="Group 4" transform="matrix(1,0,0,1,0,0)" opacity="0.5"><g id="Group 1"><path fill="#ffffff" fill-opacity="1" d="M-160.98,128.168L-159.238,129.785L-128.404,116.38C-125.639,115.178,-122.584,115.156,-119.803,116.316C-117.023,117.477,-114.893,119.662,-113.805,122.47C-113.333,123.689,-112.879,124.872,-112.454,125.988C-111.707,125.626,-111.346,124.752,-111.637,123.973C-112.256,122.314,-113.012,120.341,-113.805,118.293C-114.893,115.485,-117.023,113.3,-119.803,112.139C-122.584,110.979,-125.639,111.001,-128.404,112.203L-162.43,126.995L-161.175,128C-161.108,128.053,-161.043,128.11,-160.98,128.168Z" /></g></g><g id="Group 3"><g id="Group 10"><g id="Group 2"><path fill="#fcfcfc" fill-opacity="1" d="M-152.376,144.265C-157.266,139.837,-165.494,134.272,-176.033,134.178C-176.033,134.178,-179.493,127.26,-172.574,126.107C-172.574,126.107,-155.277,122.648,-141.44,138.791L-143.583,142.73C-145.337,145.955,-149.654,146.729,-152.376,144.265Z" /></g><g id="Group 1"><path fill="#000072" fill-opacity="1" d="M-174.017,131.471C-163.65,132.184,-155.57,137.616,-150.507,142.201C-149.838,142.807,-149.107,142.933,-148.611,142.933C-147.533,142.933,-146.544,142.345,-146.029,141.399L-144.826,139.188C-153.494,129.999,-163.266,128.58,-168.464,128.58C-170.663,128.58,-172.024,128.836,-172.038,128.839C-172.06,128.843,-172.093,128.849,-172.116,128.853C-172.807,128.968,-173.687,129.217,-173.957,129.747C-174.174,130.172,-174.144,130.837,-174.017,131.471ZM-148.611,148.503C-150.696,148.503,-152.697,147.731,-154.245,146.329C-158.911,142.104,-166.484,137.049,-176.058,136.963C-177.104,136.954,-178.056,136.359,-178.524,135.424C-178.756,134.96,-180.737,130.788,-178.92,127.22C-178.192,125.79,-176.586,123.963,-173.069,123.366C-172.72,123.3,-171.046,123.011,-168.464,123.011C-162.053,123.011,-149.743,124.825,-139.326,136.978C-138.574,137.855,-138.442,139.106,-138.994,140.121L-141.137,144.061C-142.628,146.801,-145.491,148.503,-148.611,148.503Z" /></g></g><g id="Group 9"><g id="Group 2"><path fill="#fcfcfc" fill-opacity="1" d="M-167.961,134.178L-168.957,154.086C-169.048,155.904,-170.444,157.388,-172.253,157.589L-175.246,157.921C-177.405,158.161,-179.217,156.312,-178.933,154.158L-176.186,133.342C-176.186,133.342,-171.42,131.872,-167.961,134.178L-167.961,134.178Z" /></g><g id="Group 1"><path fill="#000072" fill-opacity="1" d="M-173.69,135.709L-176.172,154.522C-176.194,154.689,-176.149,154.838,-176.039,154.964C-175.969,155.044,-175.802,155.181,-175.554,155.154L-172.561,154.821C-172.107,154.77,-171.761,154.403,-171.738,153.947L-170.836,135.902C-171.408,135.744,-172.052,135.665,-172.765,135.665C-173.091,135.665,-173.403,135.682,-173.69,135.709ZM-175.624,160.727C-177.384,160.727,-179.062,159.965,-180.227,158.636C-181.39,157.309,-181.925,155.545,-181.694,153.794L-178.947,132.977C-178.805,131.898,-178.047,131.002,-177.007,130.681C-176.813,130.621,-175.043,130.096,-172.765,130.096C-170.31,130.096,-168.174,130.689,-166.417,131.861C-165.601,132.405,-165.131,133.338,-165.18,134.317L-166.175,154.225C-166.335,157.424,-168.763,160.003,-171.946,160.357L-174.939,160.689C-175.166,160.714,-175.397,160.727,-175.624,160.727Z" /></g></g><g id="Group 8"><g id="Group 2"><path fill="#fcfcfc" fill-opacity="1" d="M-177.186,139.944C-177.186,139.944,-188.388,136.649,-196.845,137.033C-200.726,137.209,-204.004,139.977,-204.946,143.746L-206.013,148.015L-178.339,149.168L-177.186,139.944Z" /></g><g id="Group 1"><path fill="#000072" fill-opacity="1" d="M-202.483,145.375L-180.784,146.279L-180.251,142.01C-183.582,141.179,-189.977,139.787,-195.424,139.787C-195.869,139.787,-196.305,139.796,-196.718,139.815C-199.323,139.933,-201.596,141.827,-202.244,144.421L-202.483,145.375ZM-178.338,151.953C-178.377,151.953,-178.416,151.953,-178.455,151.951L-206.129,150.798C-206.965,150.763,-207.743,150.354,-208.244,149.683C-208.745,149.013,-208.918,148.152,-208.715,147.34L-207.648,143.07C-206.407,138.107,-202.016,134.48,-196.971,134.251C-196.474,134.228,-195.953,134.217,-195.424,134.217C-186.885,134.217,-176.824,137.147,-176.4,137.272C-175.091,137.657,-174.254,138.934,-174.423,140.289L-175.576,149.514C-175.751,150.912,-176.941,151.953,-178.338,151.953Z" /></g></g><g id="Group 7"><g id="Group 2"><path fill="#fcfcfc" fill-opacity="1" d="M-204.938,148.127L-210.492,164.887C-211.099,166.72,-209.627,168.576,-207.704,168.401L-202.82,167.956C-200.574,167.752,-198.683,166.191,-198.059,164.024L-193.611,148.586L-204.938,148.127Z" /></g><g id="Group 1"><path fill="#000072" fill-opacity="1" d="M-202.955,150.994L-207.799,165.613L-203.072,165.183C-201.961,165.082,-201.044,164.325,-200.735,163.253L-197.27,151.225L-202.955,150.994ZM-207.956,171.197C-209.7,171.197,-211.354,170.349,-212.379,168.929C-213.403,167.511,-213.685,165.672,-213.135,164.011L-207.582,147.251C-207.191,146.072,-206.065,145.294,-204.825,145.344L-193.499,145.803C-192.645,145.838,-191.853,146.264,-191.353,146.957C-190.853,147.651,-190.699,148.535,-190.936,149.357L-195.383,164.795C-196.332,168.09,-199.153,170.42,-202.568,170.73L-207.452,171.174C-207.619,171.189,-207.789,171.197,-207.956,171.197Z" /></g></g><g id="Group 6"><g id="Group 2"><path fill="#fcfcfc" fill-opacity="1" d="M-205.84,150.803L-222.337,149.514C-225.037,149.303,-227.613,150.687,-228.928,153.054L-232.535,159.546L-209.558,161.691L-205.84,150.803Z" /></g><g id="Group 1"><path fill="#000072" fill-opacity="1" d="M-228.029,157.17L-211.484,158.715L-209.635,153.3L-222.554,152.291C-224.163,152.168,-225.712,153,-226.494,154.407L-228.029,157.17ZM-209.556,164.476C-209.642,164.476,-209.73,164.472,-209.817,164.464L-232.793,162.319C-233.729,162.232,-234.559,161.677,-234.998,160.845C-235.437,160.013,-235.426,159.016,-234.969,158.194L-231.362,151.702C-229.651,148.622,-226.4,146.709,-222.878,146.709C-222.626,146.709,-222.372,146.718,-222.121,146.738L-205.623,148.026C-204.765,148.093,-203.986,148.553,-203.513,149.272C-203.04,149.991,-202.926,150.889,-203.204,151.703L-206.923,162.591C-207.311,163.726,-208.375,164.476,-209.556,164.476Z" /></g></g><g id="Group 5"><g id="Group 2"><path fill="#fcfcfc" fill-opacity="1" d="M-221.004,160.699L-226.609,171.911C-227.435,173.564,-228.992,174.73,-230.81,175.061L-236.458,176.088C-238.143,176.394,-239.441,174.627,-238.644,173.111L-231.556,159.63L-221.004,160.699Z" /></g><g id="Group 1"><path fill="#000072" fill-opacity="1" d="M-229.966,162.59L-235.482,173.081L-231.308,172.322C-230.358,172.149,-229.532,171.53,-229.1,170.666L-225.299,163.063L-229.966,162.59ZM-236.84,178.908C-238.54,178.908,-240.084,178.032,-240.97,176.565C-241.852,175.104,-241.905,173.328,-241.109,171.815L-234.021,158.334C-233.492,157.328,-232.407,156.746,-231.275,156.86L-220.723,157.929C-219.812,158.021,-219.005,158.555,-218.564,159.357C-218.123,160.159,-218.104,161.126,-218.513,161.945L-224.119,173.157C-225.331,175.581,-227.646,177.316,-230.312,177.801L-235.96,178.828C-236.251,178.881,-236.547,178.908,-236.84,178.908Z" /></g></g><g id="Group 4"><g id="Group 2"><path fill="#fcfcfc" fill-opacity="1" d="M-235.994,168.771L-250.984,168.771L-247.525,160.699L-232.16,161.223L-235.994,168.771Z" /></g><g id="Group 1"><path fill="#000072" fill-opacity="1" d="M-246.761,165.986L-237.703,165.986L-236.621,163.857L-245.716,163.547L-246.761,165.986ZM-235.994,171.556L-250.984,171.556C-251.92,171.556,-252.794,171.085,-253.309,170.304C-253.824,169.523,-253.913,168.534,-253.544,167.674L-250.084,159.602C-249.632,158.546,-248.58,157.876,-247.43,157.916L-232.065,158.44C-231.114,158.473,-230.246,158.988,-229.762,159.807C-229.278,160.626,-229.246,161.636,-229.677,162.484L-233.511,170.032C-233.986,170.967,-234.946,171.556,-235.994,171.556Z" /></g></g><g id="Group 3"><g id="Group 2"><path fill="#fcfcfc" fill-opacity="1" d="M-249.349,163.924L-257.935,184.53C-258.587,186.094,-260.252,186.981,-261.914,186.649L-266.104,185.811C-268.377,185.356,-269.614,182.882,-268.614,180.79L-258.992,160.672C-258.339,159.308,-256.895,158.505,-255.392,158.672L-252.238,159.023C-249.882,159.285,-248.437,161.736,-249.349,163.924Z" /></g><g id="Group 1"><path fill="#000072" fill-opacity="1" d="M-255.786,161.435C-256.08,161.435,-256.353,161.607,-256.48,161.873L-266.102,181.992C-266.243,182.288,-266.159,182.543,-266.096,182.669C-266.033,182.795,-265.879,183.016,-265.558,183.08L-261.368,183.918C-261.006,183.99,-260.645,183.794,-260.505,183.459L-251.919,162.853C-251.79,162.543,-251.894,162.289,-251.967,162.165C-252.04,162.041,-252.212,161.827,-252.545,161.79L-255.7,161.44C-255.729,161.437,-255.757,161.435,-255.786,161.435ZM-261.215,189.503C-261.632,189.503,-262.05,189.462,-262.46,189.38L-266.65,188.541C-268.582,188.155,-270.196,186.923,-271.077,185.16C-271.958,183.397,-271.976,181.367,-271.126,179.589L-261.504,159.47C-260.457,157.28,-258.212,155.865,-255.786,155.865C-255.553,155.865,-255.317,155.878,-255.085,155.904L-251.93,156.255C-249.927,156.478,-248.192,157.601,-247.169,159.337C-246.146,161.073,-246.003,163.135,-246.778,164.995L-255.364,185.601C-256.352,187.971,-258.649,189.503,-261.215,189.503Z" /></g></g><g id="Group 2"><g id="Group 2"><path fill="#fcfcfc" fill-opacity="1" d="M-262.307,167.783L-285.577,174.536L-284.424,181.455L-267.127,176.843L-262.307,167.783Z" /></g><g id="Group 1"><path fill="#000072" fill-opacity="1" d="M-282.423,176.521L-282.18,177.975L-269.016,174.464L-267.862,172.294L-282.423,176.521ZM-284.424,184.24C-284.954,184.24,-285.478,184.089,-285.932,183.796C-286.592,183.371,-287.041,182.687,-287.17,181.913L-288.324,174.994C-288.556,173.601,-287.709,172.255,-286.353,171.862L-263.083,165.108C-262.008,164.796,-260.852,165.158,-260.146,166.027C-259.44,166.896,-259.323,168.102,-259.849,169.09L-264.669,178.151C-265.032,178.834,-265.663,179.334,-266.41,179.533L-283.706,184.146C-283.942,184.209,-284.184,184.24,-284.424,184.24Z" /></g></g><g id="Group 1"><g id="Group 2"><path fill="#fcfcfc" fill-opacity="1" d="M-280.388,172.807L-284.62,172.202C-287.024,171.859,-289.443,172.72,-291.09,174.504L-302.297,186.644L-299.674,190.315C-297.944,192.737,-294.569,193.28,-292.166,191.523L-275.461,179.307L-280.388,172.807Z" /></g><g id="Group 1"><path fill="#000072" fill-opacity="1" d="M-298.714,186.868L-297.408,188.697C-296.921,189.379,-296.159,189.77,-295.318,189.77L-295.318,189.77C-294.774,189.77,-294.252,189.599,-293.81,189.276L-279.391,178.731L-281.915,175.402L-285.014,174.959C-286.499,174.748,-288.029,175.292,-289.044,176.392L-298.714,186.868ZM-295.318,195.34L-295.318,195.34C-297.941,195.34,-300.417,194.067,-301.94,191.934L-304.563,188.262C-305.33,187.188,-305.238,185.724,-304.343,184.755L-293.136,172.615C-291.217,170.536,-288.494,169.343,-285.665,169.343C-285.186,169.343,-284.701,169.378,-284.226,169.446L-279.994,170.05C-279.268,170.154,-278.612,170.54,-278.169,171.125L-273.242,177.624C-272.791,178.219,-272.597,178.971,-272.705,179.71C-272.813,180.449,-273.214,181.113,-273.817,181.554L-290.522,193.771C-291.925,194.797,-293.584,195.34,-295.318,195.34Z" /></g></g></g><g id="Group 2"><g id="Group 1"><path fill="#000072" fill-opacity="1" d="M-138.889,205.314L-196.497,221.698C-200.89,222.947,-205.464,220.399,-206.713,216.006L-206.713,216.006C-207.962,211.613,-205.414,207.039,-201.021,205.79L-143.414,189.406C-139.021,188.157,-134.447,190.705,-133.198,195.098L-133.198,195.098C-131.949,199.491,-134.496,204.065,-138.889,205.314Z" /></g></g><g id="Group 1" transform="matrix(1,0,0,1,0,0)" opacity="0.2"><g id="Group 1"><path fill="#000072" fill-opacity="1" d="M27.187,231.402C18.16,217.879,12.974,199.517,10.014,182.098C15.393,180.594,20.632,178.729,25.741,176.536C17.798,149.619,2.605,129.638,1.487,128.193C-0.007,126.262,-2.786,125.696,-4.991,127.13C-6.136,127.875,-6.834,129.134,-7.09,130.475C-12.239,157.427,-43.425,164.499,-43.643,164.547C-75.833,170.781,-108.284,135.652,-108.608,135.298C-108.86,135.021,-109.151,134.784,-109.459,134.574L-109.179,134.446C-105.157,132.607,-103.217,127.923,-104.763,123.782C-105.573,121.611,-106.62,118.895,-107.678,116.182C-108.022,115.299,-108.478,114.456,-109.095,113.736C-114.915,106.946,-123.312,105.144,-130.494,108.263L-143.61,113.965C-136.714,124.973,-129.254,134.804,-121.226,143.411C-112.245,153.039,-102.569,161.087,-92.233,167.54C-92.115,167.614,-91.996,167.687,-91.879,167.762C-72.783,179.912,-73.869,208.266,-93.633,219.296C-125.452,237.053,-198.339,257.795,-364.5,252.896C-325.598,258.076,-252.233,263.965,-155.854,254.1C-155.854,254.1,-150.395,253.846,-141.266,253.55C-149.164,257.051,-155.19,264.03,-157.405,272.535C-143.574,271.823,-128.212,271.417,-112.602,271.223L-102.901,288.004C-100.49,292.174,-96.039,294.742,-91.222,294.742L-83.373,294.742C-77.388,294.742,-72.119,290.8,-70.43,285.058L-67.587,275.391L-55.001,275.391L-48.114,285.886C-44.953,290.703,-39.579,293.604,-33.818,293.604L-28.504,293.604C-21.358,293.604,-14.966,289.161,-12.476,282.463L-8.657,272.19C-1.373,272.387,2.974,272.534,3.208,272.542C3.506,272.549,3.806,272.534,4.104,272.488C18.506,270.273,22.038,254.71,21.882,244.913C24.129,240.437,25.869,235.922,27.187,231.402Z" /></g></g></g></g></g></g><g id="Layer 6"><g transform="translate(774.466,569.722)"><animateTransform repeatCount="indefinite" type="translate" attributeName="transform" dur="5.3s" begin="0.867s" calcMode="spline" values="774.466 569.722; 818.466 569.722; 818.466 569.722; 774.466 569.722; 774.466 569.722; 818.466 569.722; 818.466 569.722; 774.466 569.722" keyTimes="0; 0.094; 0.34; 0.434; 0.566; 0.66; 0.906; 1" keySplines="0.333 0 0.667 1; 0.333 0 0.667 1; 0.333 0 0.667 1; 0 0 1 1; 0.333 0 0.667 1; 0 0 1 1; 0.333 0 0.667 1" fill="freeze" /><g transform="rotate(0)"><animateTransform repeatCount="indefinite" type="rotate" attributeName="transform" dur="5.3s" begin="0.867s" calcMode="spline" values="0; 15; 15; 0; 0; 15; 15; 0" keyTimes="0; 0.094; 0.34; 0.434; 0.566; 0.66; 0.906; 1" keySplines="0.333 0 0.667 1; 0.301 0 0.667 1; 0.333 0 0.667 1; 0.199 0 0.833 1; 0.333 0 0.667 1; 0.301 0 0.667 1; 0.333 0 0.667 1" fill="freeze" /><g transform="scale(1,1) translate(-234.466,-153.722)"><g id="Group 3"><g id="Group 2"><g id="Group 1"><path fill="#fcfcfc" fill-opacity="1" d="M234.466,293.699C215.571,293.699,197.239,289.997,179.979,282.697C163.31,275.647,148.341,265.555,135.487,252.701C122.633,239.847,112.541,224.878,105.491,208.209C98.191,190.949,94.489,172.617,94.489,153.722C94.489,134.827,98.191,116.495,105.491,99.235C112.541,82.566,122.633,67.597,135.487,54.743C148.341,41.889,163.31,31.797,179.979,24.747C197.239,17.447,215.571,13.745,234.466,13.745C253.361,13.745,271.693,17.447,288.953,24.747C305.622,31.797,320.591,41.889,333.445,54.743C346.299,67.597,356.391,82.566,363.441,99.235C370.741,116.495,374.443,134.827,374.443,153.722C374.443,172.617,370.741,190.949,363.441,208.209C356.391,224.878,346.299,239.847,333.445,252.701C320.591,265.555,305.622,275.647,288.953,282.697C271.693,289.997,253.361,293.699,234.466,293.699Z" /></g></g><g id="Group 1"><g id="Group 1"><path fill="#000072" fill-opacity="1" d="M234.466,8.934C214.924,8.934,195.961,12.763,178.105,20.316C160.862,27.609,145.379,38.047,132.085,51.341C118.791,64.635,108.353,80.119,101.06,97.361C93.507,115.217,89.678,134.18,89.678,153.722C89.678,173.264,93.507,192.227,101.06,210.083C108.353,227.325,118.791,242.809,132.085,256.103C145.379,269.397,160.862,279.835,178.105,287.128C195.961,294.681,214.924,298.51,234.466,298.51C254.008,298.51,272.971,294.681,290.827,287.128C308.069,279.835,323.553,269.397,336.847,256.103C350.141,242.809,360.579,227.325,367.872,210.083C375.425,192.227,379.254,173.264,379.254,153.722C379.254,134.18,375.425,115.217,367.872,97.361C360.579,80.119,350.141,64.635,336.847,51.341C323.553,38.047,308.069,27.609,290.827,20.316C272.971,12.763,254.008,8.934,234.466,8.934L234.466,8.934ZM234.466,18.556C309.116,18.556,369.632,79.072,369.632,153.722C369.632,228.372,309.116,288.889,234.466,288.889C159.816,288.889,99.299,228.372,99.299,153.722C99.299,79.072,159.816,18.556,234.466,18.556L234.466,18.556Z" /></g></g></g><g id="Group 2" transform="matrix(1,0,0,1,0,0)" opacity="0.2"><g id="Group 1"><path fill="#000072" fill-opacity="1" d="M311.306,42.519C326.412,64.338,335.269,90.812,335.269,119.359C335.269,194.009,274.753,254.525,200.103,254.525C171.556,254.525,145.081,245.668,123.262,230.562C147.657,265.8,188.363,288.888,234.466,288.888C309.116,288.888,369.632,228.372,369.632,153.722C369.632,107.619,346.544,66.914,311.306,42.519Z" /></g></g><g id="Group 1"><g id="Group 32"><g id="Group 2"><path fill="#000072" fill-opacity="1" d="M283.715,253.786C287.192,249.711,291.771,246.727,296.903,245.191L345.725,230.58C326.037,259.009,295.732,279.519,260.54,286.379L283.715,253.786Z" /></g><g id="Group 1"><path fill="#000072" fill-opacity="1" d="M286.966,256.33L270.252,279.837C295.493,272.737,317.82,258.305,334.745,238.17L298.085,249.141C293.76,250.435,289.919,252.919,286.966,256.33ZM260.539,290.503C259.156,290.503,257.842,289.805,257.074,288.613C256.16,287.195,256.202,285.364,257.179,283.989L280.354,251.397C280.424,251.298,280.499,251.202,280.578,251.11C284.579,246.42,289.815,243.007,295.721,241.24L344.543,226.63C346.222,226.127,348.033,226.74,349.062,228.158C350.091,229.575,350.112,231.488,349.115,232.928C338.913,247.659,326.164,260.134,311.22,270.008C295.988,280.073,279.202,286.942,261.329,290.426C261.066,290.477,260.801,290.503,260.539,290.503Z" /></g></g><g id="Group 31" transform="matrix(1,0,0,1,0,0)" opacity="0.4"><g id="Group 1"><path fill="#000072" fill-opacity="1" d="M270.314,272.633C298.507,266.748,323.47,252.088,342.221,231.629L345.725,230.58C326.037,259.009,295.732,279.519,260.54,286.379L270.314,272.633Z" /></g></g><g id="Group 30" transform="matrix(1,0,0,1,0,0)" opacity="0.5"><g id="Group 1"><path fill="#ffffff" fill-opacity="1" d="M299.583,252.355C295.37,253.615,291.627,256.034,288.745,259.354C288.745,259.354,273.039,278.441,271.638,278.854L287.407,256.677C290.289,253.357,294.032,250.938,298.245,249.678L333.086,239.252C331.837,240.695,330.551,242.097,329.246,243.478L299.583,252.355Z" /></g></g><g id="Group 29"><g id="Group 2"><path fill="#000072" fill-opacity="1" d="M336.563,122.446C338.444,108.983,342.076,84.277,344.565,75.449C360.28,97.536,369.523,124.55,369.523,153.722C369.523,158.014,369.313,162.257,368.922,166.447L341.598,137.985C337.627,133.848,335.77,128.125,336.563,122.446Z" /></g><g id="Group 1"><path fill="#000072" fill-opacity="1" d="M346.494,85.873C344.868,94.468,342.843,107.295,340.647,123.017C340.025,127.468,341.456,131.883,344.573,135.129L365.362,156.785C365.387,155.759,365.399,154.737,365.399,153.722C365.399,129.557,358.89,106.29,346.494,85.873ZM368.923,170.571C367.819,170.571,366.738,170.127,365.947,169.303L338.623,140.841C333.745,135.759,331.505,128.847,332.479,121.876C334.418,107.993,338.053,83.355,340.597,74.33C341.028,72.802,342.296,71.657,343.86,71.386C345.425,71.114,347.005,71.765,347.925,73.058C364.752,96.707,373.646,124.601,373.646,153.722C373.646,158.026,373.438,162.437,373.028,166.831C372.878,168.437,371.804,169.809,370.281,170.341C369.836,170.496,369.378,170.571,368.923,170.571Z" /></g></g><g id="Group 28" transform="matrix(1,0,0,1,0,0)" opacity="0.4"><g id="Group 1"><path fill="#000072" fill-opacity="1" d="M336.563,122.446C338.444,108.983,342.076,84.277,344.565,75.449C345.824,77.219,347.026,79.031,348.201,80.862C346.34,91.518,344.446,104.551,343.255,113.078C342.462,118.757,344.319,124.48,348.29,128.617L369.462,150.672C369.485,151.688,369.523,152.7,369.523,153.722C369.523,158.014,369.313,162.257,368.922,166.447L341.598,137.985C337.627,133.848,335.77,128.125,336.563,122.446Z" /></g></g><g id="Group 27" transform="matrix(1,0,0,1,0,0)" opacity="0.5"><g id="Group 1"><path fill="#ffffff" fill-opacity="1" d="M364.662,155.246C363.699,135.556,359.067,116.056,349.819,98.832C349.076,97.448,347.003,97.746,346.682,99.284C344.66,108.984,340.978,124.697,341.202,123.094C343.277,108.238,345.199,95.972,346.773,87.429C358.622,107.452,364.839,130.158,364.839,153.722C364.839,154.285,364.835,154.851,364.828,155.418L364.662,155.246Z" /></g></g><g id="Group 26"><g id="Group 1"><path fill="#707070" fill-opacity="1" d="M278.055,139.338C278.105,139.373,278.145,139.418,278.194,139.454C278.197,139.445,278.163,139.414,278.055,139.338Z" /></g></g><g id="Group 25" transform="matrix(1,0,0,1,0,0)" opacity="0.4"><g id="Group 1"><path fill="#ffffff" fill-opacity="1" d="M278.055,139.338C278.105,139.373,278.145,139.418,278.194,139.454C278.197,139.445,278.163,139.414,278.055,139.338Z" /></g></g><g id="Group 24"><g id="Group 2"><path fill="#000072" fill-opacity="1" d="M187.889,34.678L222.657,47.541C230.277,50.36,238.654,50.357,246.272,47.533L281.051,34.639C283.838,33.606,286.312,31.902,288.283,29.704C271.791,22.537,253.595,18.556,234.466,18.556C215.328,18.556,197.123,22.541,180.624,29.715C182.602,31.928,185.088,33.642,187.889,34.678Z" /></g><g id="Group 1"><path fill="#000072" fill-opacity="1" d="M189.131,30.739C189.194,30.763,189.256,30.787,189.319,30.81L224.088,43.673C227.416,44.904,230.904,45.529,234.454,45.529L234.455,45.529C238.01,45.529,241.503,44.902,244.838,43.666L279.617,30.773C279.662,30.756,279.708,30.738,279.753,30.721C265.284,25.381,250.085,22.679,234.466,22.679C218.83,22.679,203.614,25.387,189.131,30.739ZM234.455,53.777C234.454,53.777,234.453,53.777,234.453,53.777C229.923,53.777,225.473,52.979,221.226,51.408L186.458,38.545C183.063,37.289,179.982,35.186,177.549,32.463C176.667,31.476,176.313,30.126,176.596,28.833C176.879,27.54,177.766,26.462,178.98,25.934C196.533,18.302,215.201,14.432,234.466,14.432C253.721,14.432,272.38,18.298,289.926,25.922C291.141,26.45,292.029,27.53,292.312,28.825C292.595,30.12,292.238,31.471,291.353,32.457C288.928,35.162,285.861,37.253,282.484,38.505L247.705,51.399C243.45,52.977,238.992,53.777,234.455,53.777Z" /></g></g><g id="Group 23" transform="matrix(1,0,0,1,0,0)" opacity="0.4"><g id="Group 1"><path fill="#000072" fill-opacity="1" d="M234.466,18.556C227.495,18.556,220.65,19.091,213.964,20.11C228.089,20.895,241.635,23.848,254.276,28.642C257.22,29.759,257.402,33.904,254.571,35.283C254.043,35.54,253.501,35.771,252.947,35.977L222.206,47.374L222.657,47.541C230.276,50.36,238.653,50.357,246.271,47.533L281.051,34.639C283.838,33.606,286.312,31.902,288.283,29.704C271.791,22.537,253.595,18.556,234.466,18.556Z" /></g></g><g id="Group 22" transform="matrix(1,0,0,1,0,0)" opacity="0.5"><g id="Group 1"><path fill="#ffffff" fill-opacity="1" d="M234.989,43.148L205.543,32.254C204.173,31.747,204.221,29.789,205.613,29.346C216.666,25.825,228.113,23.821,239.821,23.352C238.041,23.281,236.257,23.24,234.466,23.24C219.411,23.24,204.748,25.76,190.757,30.745L224.282,43.148C229.268,44.992,234.638,45.425,239.808,44.466C238.176,44.163,236.563,43.73,234.989,43.148Z" /></g></g><g id="Group 21"><g id="Group 2"><path fill="#000072" fill-opacity="1" d="M185.285,253.786C181.808,249.711,177.229,246.727,172.097,245.191L123.275,230.58C142.963,259.009,173.268,279.519,208.46,286.379L185.285,253.786Z" /></g><g id="Group 1"><path fill="#000072" fill-opacity="1" d="M134.255,238.17C151.18,258.305,173.507,272.737,198.748,279.837L182.034,256.33C179.081,252.919,175.24,250.435,170.915,249.141L134.255,238.17ZM208.46,290.503C208.198,290.503,207.935,290.477,207.671,290.426C189.798,286.942,173.012,280.073,157.78,270.008C142.836,260.134,130.087,247.659,119.885,232.928C118.888,231.488,118.909,229.575,119.938,228.158C120.967,226.741,122.779,226.127,124.457,226.63L173.279,241.24C179.185,243.007,184.421,246.42,188.422,251.11C188.501,251.202,188.575,251.298,188.645,251.397L211.82,283.989C212.797,285.364,212.839,287.195,211.925,288.613C211.157,289.805,209.843,290.503,208.46,290.503Z" /></g></g><g id="Group 20" transform="matrix(1,0,0,1,0,0)" opacity="0.4"><g id="Group 1"><path fill="#000072" fill-opacity="1" d="M198.686,272.633C170.493,266.748,145.529,252.088,126.778,231.629L123.275,230.58C142.963,259.009,173.268,279.519,208.46,286.379L198.686,272.633Z" /></g></g><g id="Group 19" transform="matrix(1,0,0,1,0,0)" opacity="0.5"><g id="Group 1"><path fill="#ffffff" fill-opacity="1" d="M169.416,252.355C173.629,253.615,177.372,256.034,180.254,259.354C180.254,259.354,195.961,278.441,197.362,278.854L181.593,256.677C178.711,253.357,174.967,250.938,170.754,249.678L135.914,239.252C137.163,240.695,138.449,242.097,139.754,243.478L169.416,252.355Z" /></g></g><g id="Group 18"><g id="Group 2"><path fill="#000072" fill-opacity="1" d="M132.259,122.446C130.378,108.983,126.746,84.277,124.257,75.449C108.542,97.536,99.299,124.55,99.299,153.722C99.299,158.014,99.509,162.257,99.9,166.447L127.224,137.985C131.195,133.848,133.052,128.125,132.259,122.446Z" /></g><g id="Group 1"><path fill="#000072" fill-opacity="1" d="M122.328,85.873C109.932,106.29,103.423,129.557,103.423,153.722C103.423,154.737,103.435,155.759,103.46,156.785L124.249,135.129C127.366,131.883,128.797,127.468,128.175,123.017C125.979,107.295,123.954,94.468,122.328,85.873ZM99.899,170.571C99.444,170.571,98.986,170.496,98.541,170.341C97.018,169.809,95.944,168.437,95.794,166.831C95.384,162.437,95.176,158.026,95.176,153.722C95.176,124.601,104.07,96.708,120.897,73.058C121.817,71.765,123.399,71.116,124.962,71.386C126.526,71.657,127.794,72.802,128.225,74.33C130.769,83.354,134.403,107.993,136.343,121.876C137.317,128.847,135.077,135.759,130.199,140.841L102.875,169.303C102.084,170.127,101.003,170.571,99.899,170.571Z" /></g></g><g id="Group 17" transform="matrix(1,0,0,1,0,0)" opacity="0.4"><g id="Group 1"><path fill="#000072" fill-opacity="1" d="M132.259,122.446C130.378,108.983,126.746,84.277,124.257,75.449C122.998,77.219,121.796,79.031,120.621,80.862C122.482,91.518,124.376,104.551,125.567,113.078C126.36,118.757,124.503,124.48,120.532,128.617L99.36,150.672C99.337,151.688,99.299,152.7,99.299,153.722C99.299,158.014,99.509,162.257,99.9,166.447L127.224,137.985C131.195,133.848,133.052,128.125,132.259,122.446Z" /></g></g><g id="Group 16" transform="matrix(1,0,0,1,0,0)" opacity="0.5"><g id="Group 1"><path fill="#ffffff" fill-opacity="1" d="M104.16,155.246C105.123,135.556,109.755,116.056,119.003,98.832C119.746,97.448,121.819,97.746,122.14,99.284C124.162,108.984,127.844,124.697,127.62,123.094C125.545,108.238,123.623,95.972,122.049,87.429C110.2,107.452,103.983,130.158,103.983,153.722C103.983,154.285,103.988,154.851,103.995,155.418L104.16,155.246Z" /></g></g><g id="Group 15"><g id="Group 1"><path fill="#707070" fill-opacity="1" d="M272.787,135.62L272.787,135.62L278.055,139.338L272.787,135.62Z" /></g></g><g id="Group 14" transform="matrix(1,0,0,1,0,0)" opacity="0.4"><g id="Group 1"><path fill="#000072" fill-opacity="1" d="M272.787,135.62L272.787,135.62L278.055,139.338L272.787,135.62Z" /></g></g><g id="Group 13"><g id="Group 2"><path fill="#000072" fill-opacity="1" d="M280.756,135.511L241.855,108.052C237.425,104.925,231.507,104.925,227.077,108.052L188.176,135.511C183.559,138.77,181.623,144.669,183.41,150.031L198.151,194.257C199.895,199.489,204.792,203.018,210.307,203.018L234.466,203.018L258.625,203.018C264.14,203.018,269.037,199.489,270.781,194.257L285.522,150.031C287.309,144.669,285.373,138.77,280.756,135.511Z" /></g><g id="Group 1"><path fill="#000072" fill-opacity="1" d="M234.466,109.83C232.662,109.83,230.929,110.381,229.455,111.421L190.554,138.88C187.399,141.107,186.1,145.064,187.321,148.727L202.063,192.953C203.248,196.507,206.561,198.895,210.307,198.895L258.625,198.895C262.371,198.895,265.684,196.507,266.869,192.953L281.61,148.727C282.831,145.064,281.533,141.107,278.378,138.88L239.477,111.421C238.003,110.381,236.27,109.83,234.466,109.83ZM258.625,207.142L210.307,207.142C203.005,207.142,196.548,202.487,194.239,195.56L179.497,151.335C177.117,144.195,179.65,136.482,185.798,132.142L224.699,104.683C227.572,102.655,230.949,101.583,234.466,101.583C237.983,101.583,241.36,102.655,244.233,104.683L283.134,132.142C289.283,136.482,291.814,144.195,289.434,151.335L274.693,195.56C272.384,202.487,265.927,207.142,258.625,207.142Z" /></g></g><g id="Group 12" transform="matrix(1,0,0,1,0,0)" opacity="0.5"><g id="Group 1"><path fill="#ffffff" fill-opacity="1" d="M272.787,135.62L242.141,113.987L239.154,111.879C237.752,110.89,236.109,110.394,234.466,110.394C232.823,110.394,231.18,110.89,229.778,111.879L220.299,118.57L204.234,129.91L190.878,139.338C190.578,139.55,190.303,139.785,190.045,140.032C187.716,142.181,186.827,145.471,187.853,148.551L202.594,192.774C203.684,196.044,206.717,198.255,210.152,198.321C209.992,198.283,210.461,198.15,211.4,197.947C211.092,197.445,210.816,196.919,210.624,196.342L195.883,152.117C194.741,148.689,195.955,144.988,198.907,142.905C198.907,142.905,202.03,140.703,206.506,137.546C209.669,138.299,214.598,136.984,219.25,133.847C224.242,130.481,227.409,126.033,227.519,122.729C230.593,120.561,233.295,118.657,235.197,117.316C236.946,116.083,239.28,116.085,241.028,117.319C241.028,117.319,262.897,130.503,273.088,136.524C272.996,136.22,272.914,135.912,272.787,135.62Z" /></g></g><g id="Group 11" transform="matrix(1,0,0,1,0,0)" opacity="0.4"><g id="Group 1"><path fill="#000072" fill-opacity="1" d="M266.337,192.775L281.079,148.551C282.202,145.181,281.037,141.555,278.194,139.454C278.176,139.507,276.168,138.343,273.088,136.524C273.559,138.081,273.596,139.77,273.049,141.411L269.483,152.109C267.087,153.507,264.702,156.952,263.372,161.345C262.181,165.28,262.117,169.048,262.991,171.584L258.307,185.636C257.199,188.961,254.1,191.194,250.595,191.194C250.595,191.194,218.257,196.467,211.4,197.948C211.478,198.076,211.546,198.211,211.63,198.334L258.625,198.334C262.13,198.334,265.229,196.1,266.337,192.775Z" /></g></g><g id="Group 10"><g id="Group 1"><path fill="#707070" fill-opacity="1" d="M278.194,139.454C278.145,139.418,278.105,139.373,278.055,139.338L272.787,135.62C272.914,135.912,272.996,136.22,273.088,136.524C276.168,138.343,278.176,139.507,278.194,139.454Z" /></g></g><g id="Group 9" transform="matrix(1,0,0,1,0,0)" opacity="0.4"><g id="Group 1"><path fill="#ffffff" fill-opacity="1" d="M278.194,139.454C278.145,139.418,278.105,139.373,278.055,139.338L272.787,135.62C272.914,135.912,272.996,136.22,273.088,136.524C276.168,138.343,278.176,139.507,278.194,139.454Z" /></g></g><g id="Group 8"><g id="Group 1"><path fill="#707070" fill-opacity="1" d="M210.308,198.334L211.63,198.334C211.546,198.211,211.478,198.076,211.4,197.948C210.281,198.19,209.816,198.334,210.308,198.334Z" /></g></g><g id="Group 7" transform="matrix(1,0,0,1,0,0)" opacity="0.4"><g id="Group 1"><path fill="#ffffff" fill-opacity="1" d="M210.308,198.334L211.63,198.334C211.546,198.211,211.478,198.076,211.4,197.948C210.281,198.19,209.816,198.334,210.308,198.334Z" /></g></g><g id="Group 6" transform="matrix(1,0,0,1,0,0)" opacity="0.4"><g id="Group 1"><path fill="#000072" fill-opacity="1" d="M210.308,198.334L211.63,198.334C211.546,198.211,211.478,198.076,211.4,197.948C210.281,198.19,209.816,198.334,210.308,198.334Z" /></g></g><g id="Group 5"><g id="Group 1"><path fill="#000072" fill-opacity="1" d="M238.59,105.657L230.342,105.657L230.342,48.769L238.59,48.769L238.59,105.657Z" /></g></g><g id="Group 4"><g id="Group 1"><path fill="#000072" fill-opacity="1" d="M287.714,253.448L259.091,199.382L266.38,195.523L295.003,249.59L287.714,253.448Z" /></g></g><g id="Group 3"><g id="Group 1"><path fill="#000072" fill-opacity="1" d="M181.218,253.448L173.929,249.59L202.553,195.523L209.841,199.382L181.218,253.448Z" /></g></g><g id="Group 2"><g id="Group 1"><path fill="#000072" fill-opacity="1" d="M283.886,146.611L282.048,138.571L337.705,125.849L339.542,133.889L283.886,146.611Z" /></g></g><g id="Group 1"><g id="Group 1"><path fill="#000072" fill-opacity="1" d="M185.046,146.611L129.389,133.889L131.227,125.849L186.884,138.571L185.046,146.611Z" /></g></g></g></g></g></g></g><g transform="matrix(1,0,0,1,540,416)" id="Layer 4"><g id="Group 30"><g id="Group 1"><g id="Group 2"><path fill="#ffce00" fill-opacity="1" d="M-129.39,35.5C-191.74,37.614,-204.02,-37.046,-206.428,-68.548C-206.994,-75.948,-201.166,-82.268,-193.744,-82.268L-139.955,-82.268L-146.119,-131.116L-232.124,-131.116C-249.336,-131.116,-262.985,-116.639,-261.993,-99.456C-258.369,-36.65,-236.901,96.401,-119.353,81.002L-125.095,35.5L-129.39,35.5Z" /></g><g id="Group 1"><path fill="#000072" fill-opacity="1" d="M-232.124,-126.305C-239.106,-126.305,-245.588,-123.51,-250.379,-118.435C-255.174,-113.355,-257.593,-106.713,-257.19,-99.733C-255.432,-69.274,-249.679,-25.232,-232.247,11.611C-211.585,55.28,-179.733,77.422,-137.573,77.422C-133.418,77.422,-129.117,77.206,-124.735,76.777L-129.336,40.312C-130.214,40.34,-131.111,40.343,-131.975,40.355C-147.029,40.355,-160.342,36.023,-171.548,27.478C-180.937,20.318,-188.887,10.152,-195.177,-2.739C-206.003,-24.926,-209.879,-50.573,-211.225,-68.181C-211.597,-73.048,-209.911,-77.891,-206.598,-81.467C-203.294,-85.034,-198.608,-87.079,-193.744,-87.079L-145.411,-87.079L-150.361,-126.305L-232.124,-126.305ZM-137.573,87.043C-162.341,87.043,-184.125,79.969,-202.319,66.016C-217.764,54.172,-230.759,37.253,-240.944,15.726C-259.037,-22.515,-264.989,-67.867,-266.796,-99.179C-267.353,-108.83,-264.008,-118.015,-257.376,-125.04C-250.749,-132.06,-241.781,-135.926,-232.124,-135.926L-146.119,-135.926C-143.695,-135.926,-141.649,-134.123,-141.346,-131.718L-135.214,-83.124C-135.164,-82.846,-135.138,-82.56,-135.138,-82.268C-135.138,-79.611,-137.292,-77.458,-139.949,-77.458C-139.951,-77.458,-139.953,-77.458,-139.955,-77.458L-193.744,-77.458C-195.97,-77.458,-198.028,-76.559,-199.539,-74.928C-201.059,-73.287,-201.802,-71.151,-201.631,-68.914C-199.341,-38.952,-187.97,30.734,-131.975,30.734C-131.972,30.734,-131.968,30.734,-131.965,30.734C-131.167,30.734,-130.356,30.719,-129.553,30.692C-129.499,30.69,-129.444,30.69,-129.39,30.69L-125.095,30.69C-122.671,30.69,-120.625,32.493,-120.322,34.898L-114.58,80.4C-114.248,83.027,-116.102,85.428,-118.728,85.772C-125.167,86.615,-131.508,87.043,-137.573,87.043Z" /></g></g></g><g id="Group 29" transform="matrix(1,0,0,1,0,0)" opacity="0.6"><g id="Group 1"><path fill="#ffffff" fill-opacity="1" d="M-128.493,46.992L-129.336,40.313C-143.566,40.781,-155.337,37.572,-165.084,31.928C-155.544,40.172,-143.559,45.802,-128.493,46.992Z" /></g></g><g id="Group 28" transform="matrix(1,0,0,1,0,0)" opacity="0.6"><g id="Group 1"><path fill="#ffffff" fill-opacity="1" d="M-189.627,63.034C-234.351,26.013,-245.126,-50.529,-247.569,-92.861C-247.972,-99.841,-245.552,-106.483,-240.757,-111.563C-235.966,-116.638,-229.483,-119.432,-222.502,-119.432L-149.493,-119.432L-150.36,-126.305L-232.124,-126.305C-239.105,-126.305,-245.588,-123.51,-250.379,-118.435C-255.174,-113.355,-257.594,-106.713,-257.191,-99.733C-254.748,-57.401,-243.973,19.14,-199.249,56.161C-196.028,58.827,-192.663,61.217,-189.183,63.383C-189.329,63.263,-189.481,63.155,-189.627,63.034Z" /></g></g><g id="Group 27"><g id="Group 1"><g id="Group 2"><path fill="#ffce00" fill-opacity="1" d="M140.808,35.5C203.158,37.614,215.438,-37.046,217.846,-68.548C218.412,-75.948,212.584,-82.268,205.162,-82.268L151.373,-82.268L157.537,-131.116L243.542,-131.116C260.753,-131.116,274.402,-116.639,273.411,-99.456C269.787,-36.65,248.319,96.401,130.771,81.002L136.513,35.5L140.808,35.5Z" /></g><g id="Group 1"><path fill="#000072" fill-opacity="1" d="M136.153,76.777C140.535,77.206,144.836,77.422,148.991,77.422C191.151,77.422,223.003,55.28,243.665,11.611C261.097,-25.232,266.851,-69.274,268.608,-99.733C269.011,-106.713,266.592,-113.355,261.797,-118.435C257.006,-123.51,250.524,-126.305,243.542,-126.305L161.779,-126.305L156.829,-87.079L205.162,-87.079C210.026,-87.079,214.711,-85.034,218.016,-81.467C221.329,-77.891,223.015,-73.048,222.643,-68.181C221.297,-50.573,217.421,-24.926,206.595,-2.739C200.305,10.152,192.355,20.318,182.966,27.478C171.761,36.022,158.445,40.355,143.393,40.355C142.515,40.358,141.634,40.34,140.755,40.312L136.153,76.777ZM148.991,87.043C142.926,87.043,136.585,86.615,130.146,85.772C127.52,85.428,125.666,83.027,125.998,80.4L131.74,34.898C132.044,32.493,134.089,30.69,136.513,30.69L140.808,30.69C140.862,30.69,140.917,30.69,140.971,30.692C141.774,30.719,142.585,30.734,143.383,30.734C199.387,30.742,210.76,-38.95,213.05,-68.914C213.221,-71.151,212.478,-73.287,210.958,-74.928C209.447,-76.559,207.388,-77.458,205.162,-77.458L151.373,-77.458C149.992,-77.458,148.677,-78.051,147.764,-79.087C146.851,-80.123,146.427,-81.501,146.6,-82.871L152.764,-131.718C153.067,-134.123,155.113,-135.926,157.537,-135.926L243.542,-135.926C253.199,-135.926,262.167,-132.06,268.794,-125.04C275.426,-118.015,278.771,-108.83,278.214,-99.179C276.407,-67.867,270.456,-22.515,252.362,15.726C242.177,37.253,229.182,54.172,213.737,66.016C195.543,79.969,173.759,87.043,148.991,87.043Z" /></g></g></g><g id="Group 26" transform="matrix(1,0,0,1,0,0)" opacity="0.2"><g id="Group 1"><path fill="#000072" fill-opacity="1" d="M209.552,63.131C246.448,22.625,255.986,-45.754,258.292,-85.711C259.284,-102.894,245.633,-117.37,228.422,-117.37L155.802,-117.37L151.373,-82.268L205.162,-82.268C212.584,-82.268,218.412,-75.948,217.846,-68.548C215.989,-44.249,208.251,5.72,176.198,26.334L176.199,26.333C166.384,38.445,153.016,47.269,134.812,48.978L136.513,35.5L130.771,81.002C166.739,85.714,193.699,76.512,213.917,59.691C212.494,60.874,211.042,62.025,209.552,63.131Z" /></g></g><g id="Group 25"><g id="Group 2"><path fill="#ffce00" fill-opacity="1" d="M30.271,127.173L5.289,124.764L5.289,124.496L3.901,124.63L2.514,124.496L2.514,124.764L-22.468,127.173C-22.468,127.173,-18.304,238.251,-71.042,254.31L2.514,254.31L5.289,254.31L78.845,254.31C26.107,238.251,30.271,127.173,30.271,127.173Z" /></g><g id="Group 1"><path fill="#000072" fill-opacity="1" d="M-52.509,249.499L60.312,249.499C54.443,244.554,49.256,238.041,44.799,230.002C38.332,218.337,33.37,203.399,30.052,185.601C25.729,162.411,25.323,140.698,25.38,131.534L4.828,129.553C4.592,129.53,4.36,129.49,4.136,129.435C3.979,129.443,3.823,129.443,3.666,129.435C3.442,129.49,3.211,129.53,2.975,129.553L-17.577,131.534C-17.52,140.698,-17.926,162.411,-22.249,185.601C-25.567,203.399,-30.529,218.337,-36.996,230.002C-41.453,238.041,-46.64,244.554,-52.509,249.499ZM78.845,259.12L-71.042,259.12C-73.425,259.12,-75.45,257.375,-75.801,255.018C-76.152,252.661,-74.724,250.401,-72.444,249.707C-61.65,246.42,-52.555,238.221,-45.411,225.337C-39.446,214.579,-34.836,200.616,-31.708,183.837C-26.317,154.921,-27.265,127.625,-27.275,127.353C-27.37,124.807,-25.466,122.628,-22.93,122.384L0.506,120.124C1.27,119.773,2.121,119.625,2.975,119.708L3.901,119.797L4.828,119.708C5.682,119.625,6.533,119.773,7.297,120.124L30.732,122.384C33.268,122.628,35.173,124.807,35.078,127.353C35.068,127.626,34.126,155.067,39.539,183.989C42.673,200.733,47.286,214.666,53.249,225.399C60.387,238.247,69.471,246.425,80.247,249.707C82.527,250.401,83.955,252.661,83.604,255.018C83.253,257.375,81.228,259.12,78.845,259.12Z" /></g></g><g id="Group 24" transform="matrix(1,0,0,1,0,0)" opacity="0.6"><g id="Group 1"><path fill="#ffffff" fill-opacity="1" d="M-7.947,135.972L12.597,133.989C12.833,133.966,13.064,133.928,13.289,133.873C13.445,133.881,13.6,133.881,13.756,133.873C13.982,133.928,14.213,133.966,14.449,133.989L25.37,135.043C25.363,133.743,25.365,132.549,25.373,131.534L4.827,129.552C4.591,129.529,4.36,129.49,4.135,129.435C3.979,129.443,3.823,129.443,3.667,129.435C3.441,129.49,3.211,129.529,2.975,129.552L-17.569,131.534C-17.413,150.446,-19.131,221.38,-52.497,249.499L-38.236,249.499C-9.368,218.993,-7.799,153.961,-7.947,135.972Z" /></g></g><g id="Group 23"><g id="Group 2"><path fill="#ffce00" fill-opacity="1" d="M180.417,-194.015L6.083,-194.015L1.72,-194.015L-172.614,-194.015C-172.614,-194.015,-187.391,175.05,1.721,180.638C1.721,180.68,1.72,180.704,1.72,180.704C2.453,180.704,3.174,180.682,3.901,180.671C4.628,180.682,5.35,180.704,6.083,180.704C6.083,180.704,6.082,180.68,6.082,180.638C195.195,175.05,180.417,-194.015,180.417,-194.015Z" /></g><g id="Group 1"><path fill="#000072" fill-opacity="1" d="M-167.932,-189.204C-168.248,-174.062,-168.576,-123.568,-161.056,-65.245C-152.829,-1.441,-133.278,85.062,-86.855,134.825C-62.422,161.016,-32.572,174.812,1.863,175.829C2.071,175.835,2.275,175.855,2.475,175.886C2.671,175.883,2.866,175.879,3.061,175.875C3.317,175.87,3.573,175.865,3.83,175.861C3.878,175.86,3.925,175.86,3.973,175.861C4.23,175.865,4.486,175.87,4.742,175.875C4.937,175.879,5.132,175.883,5.328,175.886C5.528,175.855,5.732,175.835,5.94,175.829C40.378,174.811,70.23,161.013,94.665,134.816C141.11,85.023,160.658,-1.545,168.878,-65.399C176.383,-123.693,176.053,-174.082,175.736,-189.204L-167.932,-189.204ZM6.083,185.515C5.567,185.515,5.056,185.504,4.546,185.494C4.331,185.49,4.116,185.485,3.901,185.482C3.686,185.485,3.472,185.49,3.257,185.494C2.747,185.504,2.236,185.515,1.72,185.515C1.399,185.515,1.082,185.483,0.772,185.421C-35.988,184.135,-67.837,169.319,-93.898,141.379C-115.263,118.473,-132.938,86.487,-146.433,46.307C-157.153,14.39,-165.29,-22.78,-170.619,-64.171C-179.675,-134.512,-177.445,-193.618,-177.421,-194.207C-177.318,-196.787,-175.196,-198.826,-172.614,-198.826L180.417,-198.826C182.999,-198.826,185.121,-196.787,185.224,-194.207C185.247,-193.618,187.477,-134.512,178.421,-64.171C173.092,-22.78,164.956,14.39,154.236,46.307C140.741,86.487,123.066,118.474,101.701,141.379C75.638,169.321,43.791,184.136,7.028,185.421C6.719,185.483,6.403,185.515,6.083,185.515Z" /></g></g><g id="Group 22" transform="matrix(1,0,0,1,0,0)" opacity="0.2"><g id="Group 1"><path fill="#ffffff" fill-opacity="1" d="M-60.844,-87.291C-57.257,-53.961,-67.938,-25.479,-84.701,-23.675C-101.464,-21.871,-117.962,-47.427,-121.549,-80.757C-125.136,-114.087,-114.455,-142.569,-97.692,-144.373C-80.929,-146.177,-64.431,-120.621,-60.844,-87.291Z" /></g></g><g id="Group 21" transform="matrix(1,0,0,1,0,0)" opacity="0.6"><g id="Group 1"><path fill="#ffffff" fill-opacity="1" d="M-75.858,134.824C-122.282,85.062,-141.833,-1.442,-150.06,-65.246C-157.58,-123.568,-157.252,-174.062,-156.936,-189.204L-167.932,-189.204C-168.248,-174.062,-168.576,-123.568,-161.056,-65.246C-152.829,-1.442,-133.278,85.062,-86.854,134.824C-62.421,161.016,-32.572,174.813,1.863,175.83C2.067,175.835,2.27,175.855,2.47,175.887C2.663,175.883,2.857,175.879,3.05,175.875L3.83,175.86C3.854,175.86,3.877,175.86,3.901,175.86C3.925,175.86,3.948,175.86,3.972,175.86L4.755,175.875C4.948,175.879,5.142,175.883,5.337,175.887C5.534,175.855,5.736,175.835,5.94,175.83C7.103,175.796,8.248,175.71,9.4,175.646C-23.572,173.829,-52.25,160.132,-75.858,134.824Z" /></g></g><g id="Group 20"><g id="Group 2"><path fill="#ffce00" fill-opacity="1" d="M181.224,-191.338L-173.421,-191.338C-186.725,-191.338,-197.51,-202.123,-197.51,-215.427L-197.51,-215.427C-197.51,-228.731,-186.725,-239.516,-173.421,-239.516L181.224,-239.516C194.528,-239.516,205.313,-228.731,205.313,-215.427L205.313,-215.427C205.313,-202.123,194.528,-191.338,181.224,-191.338Z" /></g><g id="Group 1"><path fill="#000072" fill-opacity="1" d="M-173.421,-234.706C-184.051,-234.706,-192.699,-226.057,-192.699,-215.427C-192.699,-204.797,-184.051,-196.149,-173.421,-196.149L181.224,-196.149C191.854,-196.149,200.502,-204.797,200.502,-215.427C200.502,-226.057,191.854,-234.706,181.224,-234.706L-173.421,-234.706ZM181.224,-186.528L-173.421,-186.528C-189.356,-186.528,-202.321,-199.492,-202.321,-215.427C-202.321,-231.362,-189.356,-244.327,-173.421,-244.327L181.224,-244.327C197.159,-244.327,210.124,-231.362,210.124,-215.427C210.124,-199.492,197.159,-186.528,181.224,-186.528Z" /></g></g><g id="Group 19" transform="matrix(1,0,0,1,0,0)" opacity="0.6"><g id="Group 1"><path fill="#ffffff" fill-opacity="1" d="M181.224,-234.706L-71.121,-234.706L-142.826,-234.706L-173.421,-234.706C-184.051,-234.706,-192.699,-226.057,-192.699,-215.427C-192.699,-206.285,-186.296,-198.626,-177.744,-196.656C-181.039,-200.116,-183.077,-204.785,-183.077,-209.929C-183.077,-220.559,-174.429,-229.208,-163.799,-229.208L-137.415,-229.208C-130.762,-225.165,-119.22,-222.665,-106.153,-223.001C-94.741,-223.295,-84.596,-225.689,-77.922,-229.208L190.845,-229.208C192.333,-229.208,193.777,-229.022,195.169,-228.701C191.655,-232.391,186.709,-234.706,181.224,-234.706Z" /></g></g><g id="Group 18"><g id="Group 2"><path fill="#ae7c5b" fill-opacity="1" d="M134.233,294.458L-126.431,294.458L-126.431,294.458C-126.431,273.024,-109.055,255.648,-87.621,255.648L95.423,255.648C116.857,255.648,134.233,273.024,134.233,294.458L134.233,294.458Z" /></g><g id="Group 1"><path fill="#000072" fill-opacity="1" d="M-121.62,289.647L129.423,289.647L129.423,279.513C129.423,269.007,120.875,260.459,110.369,260.459L-102.566,260.459C-113.072,260.459,-121.62,269.007,-121.62,279.513L-121.62,289.647ZM134.234,299.269L-126.431,299.269C-129.088,299.269,-131.242,297.115,-131.242,294.458L-131.242,279.513C-131.242,263.701,-118.378,250.837,-102.566,250.837L110.369,250.837C126.181,250.837,139.044,263.701,139.044,279.513L139.044,294.458C139.044,297.115,136.891,299.269,134.234,299.269Z" /></g></g><g id="Group 17" transform="matrix(1,0,0,1,0,0)" opacity="0.5"><g id="Group 1"><path fill="#ffffff" fill-opacity="1" d="M-114.747,283.636C-114.747,273.13,-106.199,264.582,-95.693,264.582C-95.693,264.582,115.387,260.459,110.369,260.459L-102.566,260.459C-113.072,260.459,-121.62,269.007,-121.62,279.513L-121.62,289.647L-114.747,289.647L-114.747,283.636Z" /></g></g><g id="Group 11" transform="matrix(1,0,0,1,0,0)" opacity="0.2"><g id="Group 1"><path fill="#000072" fill-opacity="1" d="M138.281,-239.516C138.281,-239.516,48.937,-191.408,-191.604,-203.779L-174.423,-187.972L189.296,-187.972L203.759,-205.175L206.319,-218.211L192.574,-238.829L138.281,-239.516Z" /></g></g><g id="Group 10" transform="matrix(1,0,0,1,0,0)" opacity="0.2"><g id="Group 1"><path fill="#000072" fill-opacity="1" d="M180.519,-190.61L177.189,-190.24L-172.634,-193.466C-172.656,-192.815,-172.695,-191.592,-172.735,-189.831L-171.753,-178.425L81.529,-167.302C107.227,-166.173,126.908,-143.986,124.894,-118.342C117.805,-28.092,89.795,161.917,-20.518,175.243L-4.218,180.324C-2.258,180.464,-0.284,180.579,1.721,180.638C1.721,180.681,1.72,180.704,1.72,180.704C2.453,180.704,3.174,180.682,3.901,180.671C4.628,180.682,5.35,180.704,6.083,180.704C6.083,180.704,6.082,180.681,6.082,180.638C184.522,175.366,181.436,-153.506,180.519,-190.61Z" /></g></g><g id="Group 9" transform="matrix(1,0,0,1,0,0)" opacity="0.2"><g id="Group 1"><path fill="#000072" fill-opacity="1" d="M-190.458,-131.531C-190.458,-131.531,-183.357,-88.319,-198.477,-82.821L-166.6,-82.821L-172.075,-131.531L-190.458,-131.531Z" /></g></g><g id="Group 8" transform="matrix(1,0,0,1,0,0)" opacity="0.2"><g id="Group 1"><path fill="#000072" fill-opacity="1" d="M-166.863,25.766C-167.166,24.425,-154.492,82.121,-194.353,65.627C-194.353,65.627,-159.303,91.056,-126.315,78.685L-145.479,32.739C-145.479,32.739,-154.492,38.137,-166.863,25.766Z" /></g></g><g id="Group 7" transform="matrix(1,0,0,1,0,0)" opacity="0.2"><g id="Group 1"><path fill="#000072" fill-opacity="1" d="M-29.802,192.84C-29.802,192.84,-7.418,208.578,35.192,196.207L33.395,174.447C33.395,174.447,11.299,186.794,-29.33,173.975L-29.802,192.84Z" /></g></g><g id="Group 6" transform="matrix(1,0,0,1,0,0)" opacity="0.2"><g id="Group 1"><path fill="#000072" fill-opacity="1" d="M65.431,259.435C65.431,259.435,54.018,284.711,-121.504,285.55L-124.94,295.859L134.844,295.859L133.508,271.267C133.508,271.267,127.405,252.772,65.431,259.435Z" /></g></g></g><g id="Layer 5"><animate repeatCount="indefinite" begin="0.333s" calcMode="discrete" fill="freeze" dur="3s" values="visible; hidden" keyTimes="0; 1" attributeName="visibility" /><g transform="translate(545.69,356.48)"><g transform="rotate(0)"><animateTransform repeatCount="indefinite" type="rotate" attributeName="transform" dur="1s" begin="1s" calcMode="spline" values="0; 360" keyTimes="0; 1" keySplines="0.54 0 0.46 1" fill="freeze" /><g transform="scale(1,1)"><animateTransform repeatCount="indefinite" type="scale" attributeName="transform" dur="1.8s" begin="0.6s" calcMode="spline" values="1 1; 1.1 1.1; 1.1 1.1; 1 1" keyTimes="0; 0.185; 0.815; 1" keySplines="0.333 0 0.667 1; 0.302 0 0.667 1; 0.333 0 0.667 1" fill="freeze" /><g transform="translate(-6.008,59.634)"><g id="Group 10" transform="matrix(1,0,0,1,0,0)" opacity="0.2"><g id="Group 1"><path fill="#000072" fill-opacity="1" d="M88.853,-75.658C87.081,-81.111,82.233,-84.634,76.499,-84.634L40.546,-84.634C38.531,-84.634,36.759,-85.921,36.136,-87.838L25.027,-122.031C23.254,-127.484,18.404,-131.007,12.67,-131.007C6.937,-131.007,2.087,-127.484,0.315,-122.031L-10.794,-87.839C-11.417,-85.922,-13.19,-84.634,-15.205,-84.634L-51.156,-84.634C-56.89,-84.634,-61.74,-81.11,-63.512,-75.657C-65.284,-70.204,-63.431,-64.502,-58.792,-61.132L-29.706,-40C-28.076,-38.816,-27.399,-36.734,-28.022,-34.817L-39.132,-0.624C-40.904,4.83,-39.051,10.532,-34.412,13.901C-32.093,15.587,-29.435,16.428,-26.777,16.428C-24.119,16.428,-21.46,15.587,-19.141,13.901L9.945,-7.231C11.575,-8.414,13.766,-8.415,15.396,-7.231L44.482,13.901C49.121,17.273,55.116,17.271,59.753,13.902C64.392,10.531,66.246,4.83,64.474,-0.624L53.364,-34.815C52.741,-36.732,53.419,-38.816,55.049,-40L84.135,-61.132C88.773,-64.503,90.625,-70.205,88.853,-75.658Z" /></g></g><g id="Group 9"><g id="Group 2"><path fill="#ffa42c" fill-opacity="1" d="M14.092,-127.702L25.202,-93.51C26.382,-89.878,29.766,-87.419,33.585,-87.419L69.536,-87.419C78.075,-87.419,81.625,-76.493,74.717,-71.474L45.632,-50.342C42.543,-48.097,41.25,-44.119,42.43,-40.487L53.539,-6.295C56.178,1.826,46.884,8.579,39.976,3.56L10.89,-17.572C7.801,-19.817,3.617,-19.817,0.528,-17.572L-28.557,3.56C-35.465,8.579,-44.76,1.826,-42.121,-6.295L-31.012,-40.487C-29.832,-44.119,-31.125,-48.097,-34.214,-50.342L-63.299,-71.474C-70.207,-76.493,-66.657,-87.419,-58.118,-87.419L-22.166,-87.419C-18.347,-87.419,-14.964,-89.878,-13.784,-93.51L-2.674,-127.702C-0.035,-135.823,11.453,-135.823,14.092,-127.702Z" /></g><g id="Group 1"><path fill="#000072" fill-opacity="1" d="M5.709,-23.433C8.471,-23.433,11.111,-22.575,13.345,-20.952L42.431,0.18C43.276,0.794,44.183,1.106,45.126,1.106C46.597,1.106,48.072,0.334,48.975,-0.909C49.581,-1.743,50.176,-3.131,49.567,-5.004L38.457,-39.196C36.712,-44.565,38.609,-50.402,43.176,-53.721L72.262,-74.853C74.791,-76.69,74.19,-79.286,73.946,-80.038C73.702,-80.79,72.662,-83.242,69.536,-83.242L33.585,-83.242C27.939,-83.242,22.973,-86.85,21.229,-92.219L10.119,-126.411C9.153,-129.384,6.499,-129.615,5.709,-129.615C4.919,-129.615,2.265,-129.384,1.299,-126.411L-9.811,-92.219C-11.556,-86.85,-16.52,-83.242,-22.166,-83.242L-58.118,-83.242C-61.244,-83.242,-62.284,-80.79,-62.528,-80.038C-62.772,-79.286,-63.373,-76.69,-60.844,-74.853L-31.758,-53.721C-27.191,-50.403,-25.295,-44.566,-27.039,-39.197L-38.149,-5.004C-38.758,-3.13,-38.162,-1.742,-37.556,-0.908C-36.653,0.334,-35.179,1.106,-33.708,1.106C-32.765,1.106,-31.858,0.794,-31.013,0.18L-1.927,-20.952C0.307,-22.575,2.948,-23.433,5.709,-23.433ZM45.126,9.46C42.42,9.46,39.79,8.589,37.52,6.939L8.435,-14.193C7.638,-14.772,6.695,-15.079,5.709,-15.079C4.723,-15.079,3.78,-14.772,2.983,-14.193L-26.102,6.939C-28.372,8.588,-31.001,9.46,-33.707,9.46C-37.866,9.461,-41.832,7.421,-44.315,4.003C-46.75,0.652,-47.398,-3.572,-46.094,-7.586L-34.984,-41.778C-34.361,-43.695,-35.039,-45.779,-36.669,-46.963L-65.754,-68.094C-70.393,-71.464,-72.246,-77.166,-70.474,-82.619C-68.702,-88.072,-63.852,-91.596,-58.118,-91.596L-22.166,-91.596C-20.151,-91.596,-18.379,-92.883,-17.756,-94.8L-6.647,-128.992C-4.875,-134.445,-0.025,-137.969,5.709,-137.969C11.443,-137.969,16.293,-134.445,18.065,-128.992L29.174,-94.8C29.797,-92.883,31.57,-91.596,33.585,-91.596L69.536,-91.596C75.27,-91.596,80.12,-88.072,81.892,-82.619C83.664,-77.166,81.811,-71.464,77.172,-68.094L48.087,-46.963C46.457,-45.779,45.779,-43.695,46.402,-41.778L57.512,-7.586C58.816,-3.573,58.167,0.65,55.733,4.001C53.25,7.419,49.285,9.46,45.126,9.46Z" /></g></g><g id="Group 8" transform="matrix(1,0,0,1,0,0)" opacity="0.6"><g id="Group 1"><path fill="#ffffff" fill-opacity="1" d="M39.153,-78.001L74.154,-78.001C74.249,-78.907,74.062,-79.682,73.946,-80.038C73.701,-80.79,72.663,-83.242,69.537,-83.242L33.584,-83.242C31.551,-83.242,29.61,-83.716,27.872,-84.565C30.147,-80.559,34.405,-78.001,39.153,-78.001Z" /></g></g><g id="Group 7" transform="matrix(1,0,0,1,0,0)" opacity="0.6"><g id="Group 1"><path fill="#ffffff" fill-opacity="1" d="M-56.959,-74.797C-56.715,-75.549,-55.675,-78.001,-52.549,-78.001L-16.597,-78.001C-10.951,-78.001,-5.986,-81.609,-4.241,-86.979L6.868,-121.17C7.687,-123.691,9.709,-124.235,10.79,-124.344L10.119,-126.411C9.154,-129.384,6.499,-129.615,5.708,-129.615C4.918,-129.615,2.264,-129.384,1.298,-126.411L-9.811,-92.219C-11.556,-86.849,-16.521,-83.242,-22.167,-83.242L-58.118,-83.242C-61.244,-83.242,-62.284,-80.79,-62.528,-80.038C-62.772,-79.287,-63.373,-76.691,-60.844,-74.854L-57.035,-72.086C-57.353,-73.273,-57.102,-74.356,-56.959,-74.797Z" /></g></g><g id="Group 6" transform="matrix(1,0,0,1,0,0)" opacity="0.6"><g id="Group 1"><path fill="#ffffff" fill-opacity="1" d="M-32.58,0.235L-21.47,-33.956C-19.725,-39.325,-21.621,-45.163,-26.189,-48.481L-28.343,-50.046C-26.373,-46.868,-25.829,-42.921,-27.039,-39.197L-38.149,-5.005C-39.115,-2.031,-37.103,-0.284,-36.464,0.181C-35.976,0.535,-34.527,1.408,-32.744,0.988C-32.702,0.743,-32.666,0.5,-32.58,0.235Z" /></g></g><g id="Group 5" transform="matrix(1,0,0,1,0,0)" opacity="0.2"><g id="Group 1"><path fill="#000072" fill-opacity="1" d="M6.327,-129.555L6.327,-59.454L27.137,-89.478L12.67,-131.007L6.327,-129.555Z" /></g></g><g id="Group 4" transform="matrix(1,0,0,1,0,0)" opacity="0.2"><g id="Group 1"><path fill="#000072" fill-opacity="1" d="M6.327,-59.454L-37.39,4.316L7.701,-20.968L6.327,-59.454Z" /></g></g><g id="Group 3" transform="matrix(1,0,0,1,0,0)" opacity="0.2"><g id="Group 1"><path fill="#000072" fill-opacity="1" d="M-63.774,-75.949L6.327,-59.454L-29.787,-45.324L-63.774,-75.949Z" /></g></g><g id="Group 2" transform="matrix(1,0,0,1,0,0)" opacity="0.2"><g id="Group 1"><path fill="#000072" fill-opacity="1" d="M6.327,-59.454L51.686,1.025L40.69,-44.335L6.327,-59.454Z" /></g></g><g id="Group 1" transform="matrix(1,0,0,1,0,0)" opacity="0.1"><g id="Group 1"><path fill="#000072" fill-opacity="1" d="M6.327,-59.454L75.053,-74.574L40.69,-44.335L6.327,-59.454Z" /></g></g></g></g></g></g></g><g visibility="hidden" id="Layer 7"><animate repeatCount="indefinite" begin="3.333s" calcMode="discrete" fill="freeze" dur="3s" values="visible; visible" keyTimes="0; 1" attributeName="visibility" /><g transform="translate(545.69,356.48)"><g transform="rotate(0)"><animateTransform repeatCount="indefinite" type="rotate" attributeName="transform" dur="1s" begin="4s" calcMode="spline" values="0; 360" keyTimes="0; 1" keySplines="0.54 0 0.46 1" fill="freeze" /><g transform="scale(1,1)"><animateTransform repeatCount="indefinite" type="scale" attributeName="transform" dur="1.8s" begin="3.6s" calcMode="spline" values="1 1; 1.1 1.1; 1.1 1.1; 1 1" keyTimes="0; 0.185; 0.815; 1" keySplines="0.333 0 0.667 1; 0.302 0 0.667 1; 0.333 0 0.667 1" fill="freeze" /><g transform="translate(-6.008,59.634)"><g id="Group 10" transform="matrix(1,0,0,1,0,0)" opacity="0.2"><g id="Group 1"><path fill="#000072" fill-opacity="1" d="M88.853,-75.658C87.081,-81.111,82.233,-84.634,76.499,-84.634L40.546,-84.634C38.531,-84.634,36.759,-85.921,36.136,-87.838L25.027,-122.031C23.254,-127.484,18.404,-131.007,12.67,-131.007C6.937,-131.007,2.087,-127.484,0.315,-122.031L-10.794,-87.839C-11.417,-85.922,-13.19,-84.634,-15.205,-84.634L-51.156,-84.634C-56.89,-84.634,-61.74,-81.11,-63.512,-75.657C-65.284,-70.204,-63.431,-64.502,-58.792,-61.132L-29.706,-40C-28.076,-38.816,-27.399,-36.734,-28.022,-34.817L-39.132,-0.624C-40.904,4.83,-39.051,10.532,-34.412,13.901C-32.093,15.587,-29.435,16.428,-26.777,16.428C-24.119,16.428,-21.46,15.587,-19.141,13.901L9.945,-7.231C11.575,-8.414,13.766,-8.415,15.396,-7.231L44.482,13.901C49.121,17.273,55.116,17.271,59.753,13.902C64.392,10.531,66.246,4.83,64.474,-0.624L53.364,-34.815C52.741,-36.732,53.419,-38.816,55.049,-40L84.135,-61.132C88.773,-64.503,90.625,-70.205,88.853,-75.658Z" /></g></g><g id="Group 9"><g id="Group 2"><path fill="#ffa42c" fill-opacity="1" d="M14.092,-127.702L25.202,-93.51C26.382,-89.878,29.766,-87.419,33.585,-87.419L69.536,-87.419C78.075,-87.419,81.625,-76.493,74.717,-71.474L45.632,-50.342C42.543,-48.097,41.25,-44.119,42.43,-40.487L53.539,-6.295C56.178,1.826,46.884,8.579,39.976,3.56L10.89,-17.572C7.801,-19.817,3.617,-19.817,0.528,-17.572L-28.557,3.56C-35.465,8.579,-44.76,1.826,-42.121,-6.295L-31.012,-40.487C-29.832,-44.119,-31.125,-48.097,-34.214,-50.342L-63.299,-71.474C-70.207,-76.493,-66.657,-87.419,-58.118,-87.419L-22.166,-87.419C-18.347,-87.419,-14.964,-89.878,-13.784,-93.51L-2.674,-127.702C-0.035,-135.823,11.453,-135.823,14.092,-127.702Z" /></g><g id="Group 1"><path fill="#000072" fill-opacity="1" d="M5.709,-23.433C8.471,-23.433,11.111,-22.575,13.345,-20.952L42.431,0.18C43.276,0.794,44.183,1.106,45.126,1.106C46.597,1.106,48.072,0.334,48.975,-0.909C49.581,-1.743,50.176,-3.131,49.567,-5.004L38.457,-39.196C36.712,-44.565,38.609,-50.402,43.176,-53.721L72.262,-74.853C74.791,-76.69,74.19,-79.286,73.946,-80.038C73.702,-80.79,72.662,-83.242,69.536,-83.242L33.585,-83.242C27.939,-83.242,22.973,-86.85,21.229,-92.219L10.119,-126.411C9.153,-129.384,6.499,-129.615,5.709,-129.615C4.919,-129.615,2.265,-129.384,1.299,-126.411L-9.811,-92.219C-11.556,-86.85,-16.52,-83.242,-22.166,-83.242L-58.118,-83.242C-61.244,-83.242,-62.284,-80.79,-62.528,-80.038C-62.772,-79.286,-63.373,-76.69,-60.844,-74.853L-31.758,-53.721C-27.191,-50.403,-25.295,-44.566,-27.039,-39.197L-38.149,-5.004C-38.758,-3.13,-38.162,-1.742,-37.556,-0.908C-36.653,0.334,-35.179,1.106,-33.708,1.106C-32.765,1.106,-31.858,0.794,-31.013,0.18L-1.927,-20.952C0.307,-22.575,2.948,-23.433,5.709,-23.433ZM45.126,9.46C42.42,9.46,39.79,8.589,37.52,6.939L8.435,-14.193C7.638,-14.772,6.695,-15.079,5.709,-15.079C4.723,-15.079,3.78,-14.772,2.983,-14.193L-26.102,6.939C-28.372,8.588,-31.001,9.46,-33.707,9.46C-37.866,9.461,-41.832,7.421,-44.315,4.003C-46.75,0.652,-47.398,-3.572,-46.094,-7.586L-34.984,-41.778C-34.361,-43.695,-35.039,-45.779,-36.669,-46.963L-65.754,-68.094C-70.393,-71.464,-72.246,-77.166,-70.474,-82.619C-68.702,-88.072,-63.852,-91.596,-58.118,-91.596L-22.166,-91.596C-20.151,-91.596,-18.379,-92.883,-17.756,-94.8L-6.647,-128.992C-4.875,-134.445,-0.025,-137.969,5.709,-137.969C11.443,-137.969,16.293,-134.445,18.065,-128.992L29.174,-94.8C29.797,-92.883,31.57,-91.596,33.585,-91.596L69.536,-91.596C75.27,-91.596,80.12,-88.072,81.892,-82.619C83.664,-77.166,81.811,-71.464,77.172,-68.094L48.087,-46.963C46.457,-45.779,45.779,-43.695,46.402,-41.778L57.512,-7.586C58.816,-3.573,58.167,0.65,55.733,4.001C53.25,7.419,49.285,9.46,45.126,9.46Z" /></g></g><g id="Group 8" transform="matrix(1,0,0,1,0,0)" opacity="0.6"><g id="Group 1"><path fill="#ffffff" fill-opacity="1" d="M39.153,-78.001L74.154,-78.001C74.249,-78.907,74.062,-79.682,73.946,-80.038C73.701,-80.79,72.663,-83.242,69.537,-83.242L33.584,-83.242C31.551,-83.242,29.61,-83.716,27.872,-84.565C30.147,-80.559,34.405,-78.001,39.153,-78.001Z" /></g></g><g id="Group 7" transform="matrix(1,0,0,1,0,0)" opacity="0.6"><g id="Group 1"><path fill="#ffffff" fill-opacity="1" d="M-56.959,-74.797C-56.715,-75.549,-55.675,-78.001,-52.549,-78.001L-16.597,-78.001C-10.951,-78.001,-5.986,-81.609,-4.241,-86.979L6.868,-121.17C7.687,-123.691,9.709,-124.235,10.79,-124.344L10.119,-126.411C9.154,-129.384,6.499,-129.615,5.708,-129.615C4.918,-129.615,2.264,-129.384,1.298,-126.411L-9.811,-92.219C-11.556,-86.849,-16.521,-83.242,-22.167,-83.242L-58.118,-83.242C-61.244,-83.242,-62.284,-80.79,-62.528,-80.038C-62.772,-79.287,-63.373,-76.691,-60.844,-74.854L-57.035,-72.086C-57.353,-73.273,-57.102,-74.356,-56.959,-74.797Z" /></g></g><g id="Group 6" transform="matrix(1,0,0,1,0,0)" opacity="0.6"><g id="Group 1"><path fill="#ffffff" fill-opacity="1" d="M-32.58,0.235L-21.47,-33.956C-19.725,-39.325,-21.621,-45.163,-26.189,-48.481L-28.343,-50.046C-26.373,-46.868,-25.829,-42.921,-27.039,-39.197L-38.149,-5.005C-39.115,-2.031,-37.103,-0.284,-36.464,0.181C-35.976,0.535,-34.527,1.408,-32.744,0.988C-32.702,0.743,-32.666,0.5,-32.58,0.235Z" /></g></g><g id="Group 5" transform="matrix(1,0,0,1,0,0)" opacity="0.2"><g id="Group 1"><path fill="#000072" fill-opacity="1" d="M6.327,-129.555L6.327,-59.454L27.137,-89.478L12.67,-131.007L6.327,-129.555Z" /></g></g><g id="Group 4" transform="matrix(1,0,0,1,0,0)" opacity="0.2"><g id="Group 1"><path fill="#000072" fill-opacity="1" d="M6.327,-59.454L-37.39,4.316L7.701,-20.968L6.327,-59.454Z" /></g></g><g id="Group 3" transform="matrix(1,0,0,1,0,0)" opacity="0.2"><g id="Group 1"><path fill="#000072" fill-opacity="1" d="M-63.774,-75.949L6.327,-59.454L-29.787,-45.324L-63.774,-75.949Z" /></g></g><g id="Group 2" transform="matrix(1,0,0,1,0,0)" opacity="0.2"><g id="Group 1"><path fill="#000072" fill-opacity="1" d="M6.327,-59.454L51.686,1.025L40.69,-44.335L6.327,-59.454Z" /></g></g><g id="Group 1" transform="matrix(1,0,0,1,0,0)" opacity="0.1"><g id="Group 1"><path fill="#000072" fill-opacity="1" d="M6.327,-59.454L75.053,-74.574L40.69,-44.335L6.327,-59.454Z" /></g></g></g></g></g></g></g><g visibility="hidden" id="Layer 3"><animate repeatCount="indefinite" begin="0.4s" calcMode="discrete" fill="freeze" dur="5.167s" values="visible; hidden" keyTimes="0; 1" attributeName="visibility" /><g transform="translate(156.165,552.59)"><g transform="scale(0,0)"><animateTransform repeatCount="indefinite" type="scale" attributeName="transform" dur="5.167s" begin="0.4s" calcMode="spline" values="0 0; 1 1; 0 0; 0 0; 1 1; 0 0; 0 0; 1 1; 0 0; 0 0; 1 1; 0 0" keyTimes="0; 0.065; 0.129; 0.29; 0.355; 0.419; 0.581; 0.645; 0.71; 0.871; 0.935; 1" keySplines="0.333 0 0.667 1; 0.333 0 0.667 1; 0.296 0 0.667 1; 0.333 0 0.667 1; 0.333 0 0.667 1; 0.305 0 0.667 1; 0.333 0 0.667 1; 0.333 0 0.667 1; 0.296 0 0.667 1; 0.333 0 0.667 1; 0.333 0 0.667 1" fill="freeze" /><g transform="translate(383.835,-136.59)"><g id="Group 1"><path fill="#000072" fill-opacity="1" d="M-389.217,141.972C-392.189,139,-392.189,134.18,-389.217,131.208C-386.245,128.236,-381.425,128.236,-378.453,131.208C-375.481,134.18,-375.481,139,-378.453,141.972C-381.425,144.944,-386.245,144.944,-389.217,141.972Z" /></g></g></g></g></g><g visibility="hidden" id="Layer 8"><animate repeatCount="indefinite" begin="0.767s" calcMode="discrete" fill="freeze" dur="5.167s" values="visible; hidden" keyTimes="0; 1" attributeName="visibility" /><g transform="translate(948.829,646.75)"><g transform="scale(0,0)"><animateTransform repeatCount="indefinite" type="scale" attributeName="transform" dur="5.167s" begin="0.767s" calcMode="spline" values="0 0; 1 1; 0 0; 0 0; 1 1; 0 0; 0 0; 1 1; 0 0; 0 0; 1 1; 0 0" keyTimes="0; 0.065; 0.129; 0.29; 0.355; 0.419; 0.581; 0.645; 0.71; 0.871; 0.935; 1" keySplines="0.333 0 0.667 1; 0.333 0 0.667 1; 0.296 0 0.667 1; 0.333 0 0.667 1; 0.333 0 0.667 1; 0.305 0 0.667 1; 0.333 0 0.667 1; 0.333 0 0.667 1; 0.296 0 0.667 1; 0.333 0 0.667 1; 0.333 0 0.667 1" fill="freeze" /><g transform="translate(-408.829,-230.75)"><g id="Group 1"><path fill="#000072" fill-opacity="1" d="M417.606,230.75C417.606,235.597,413.676,239.527,408.829,239.527C403.982,239.527,400.052,235.597,400.052,230.75C400.052,225.903,403.982,221.972,408.829,221.972C413.676,221.972,417.606,225.903,417.606,230.75Z" /></g></g></g></g></g><g visibility="hidden" id="Layer 9"><animate repeatCount="indefinite" begin="6s" calcMode="discrete" fill="freeze" dur="0.333s" values="visible; visible" keyTimes="0; 1" attributeName="visibility" /><g transform="translate(951.501,295.324)"><g transform="scale(0,0)"><animateTransform repeatCount="indefinite" type="scale" attributeName="transform" dur="5.167s" begin="6s" calcMode="spline" values="0 0; 1 1; 0 0; 0 0; 1 1; 0 0; 0 0; 1 1; 0 0; 0 0; 1 1; 0 0" keyTimes="0; 0.065; 0.129; 0.29; 0.355; 0.419; 0.581; 0.645; 0.71; 0.871; 0.935; 1" keySplines="0.333 0 0.667 1; 0.333 0 0.667 1; 0.296 0 0.667 1; 0.333 0 0.667 1; 0.333 0 0.667 1; 0.305 0 0.667 1; 0.333 0 0.667 1; 0.333 0 0.667 1; 0.296 0 0.667 1; 0.333 0 0.667 1; 0.333 0 0.667 1" fill="freeze" /><g transform="translate(-411.501,120.676)"><g id="Group 1"><path fill="#000072" fill-opacity="1" d="M418.347,-123.28C419.785,-119.499,417.885,-115.268,414.104,-113.83C410.323,-112.392,406.093,-114.292,404.655,-118.073C403.217,-121.854,405.116,-126.085,408.897,-127.523C412.678,-128.961,416.909,-127.061,418.347,-123.28Z" /></g></g></g></g></g><g id="Layer 15"><animate repeatCount="indefinite" begin="0.333s" calcMode="discrete" fill="freeze" dur="4.833s" values="visible; hidden" keyTimes="0; 1" attributeName="visibility" /><g transform="translate(951.501,295.324)"><g transform="scale(1,1)"><animateTransform repeatCount="indefinite" type="scale" attributeName="transform" dur="5.167s" begin="0s" calcMode="spline" values="0 0; 1 1; 0 0; 0 0; 1 1; 0 0; 0 0; 1 1; 0 0; 0 0; 1 1; 0 0" keyTimes="0; 0.065; 0.129; 0.29; 0.355; 0.419; 0.581; 0.645; 0.71; 0.871; 0.935; 1" keySplines="0.333 0 0.667 1; 0.333 0 0.667 1; 0.296 0 0.667 1; 0.333 0 0.667 1; 0.333 0 0.667 1; 0.305 0 0.667 1; 0.333 0 0.667 1; 0.333 0 0.667 1; 0.296 0 0.667 1; 0.333 0 0.667 1; 0.333 0 0.667 1" fill="freeze" /><g transform="translate(-411.501,120.676)"><g id="Group 1"><path fill="#000072" fill-opacity="1" d="M418.347,-123.28C419.785,-119.499,417.885,-115.268,414.104,-113.83C410.323,-112.392,406.093,-114.292,404.655,-118.073C403.217,-121.854,405.116,-126.085,408.897,-127.523C412.678,-128.961,416.909,-127.061,418.347,-123.28Z" /></g></g></g></g></g><g visibility="hidden" id="Layer 10"><animate repeatCount="indefinite" begin="0.433s" calcMode="discrete" fill="freeze" dur="5.167s" values="visible; hidden" keyTimes="0; 1" attributeName="visibility" /><g transform="translate(908.54,218.346)"><g transform="scale(0,0)"><animateTransform repeatCount="indefinite" type="scale" attributeName="transform" dur="5.167s" begin="0.433s" calcMode="spline" values="0 0; 1 1; 0 0; 0 0; 1 1; 0 0; 0 0; 1 1; 0 0; 0 0; 1 1; 0 0" keyTimes="0; 0.065; 0.129; 0.29; 0.355; 0.419; 0.581; 0.645; 0.71; 0.871; 0.935; 1" keySplines="0.333 0 0.667 1; 0.333 0 0.667 1; 0.296 0 0.667 1; 0.333 0 0.667 1; 0.333 0 0.667 1; 0.305 0 0.667 1; 0.333 0 0.667 1; 0.333 0 0.667 1; 0.296 0 0.667 1; 0.333 0 0.667 1; 0.333 0 0.667 1" fill="freeze" /><g transform="translate(-368.54,197.654)"><g id="Group 1"><path fill="#000072" fill-opacity="1" d="M381.033,-185.162C382.725,-186.854,381.657,-190.874,378.666,-195.428C377.777,-196.782,377.777,-198.527,378.666,-199.881C381.657,-204.435,382.725,-208.455,381.033,-210.147C379.341,-211.839,375.321,-210.77,370.767,-207.779C369.413,-206.89,367.668,-206.89,366.314,-207.779C361.76,-210.77,357.74,-211.839,356.048,-210.147C354.356,-208.455,355.424,-204.435,358.415,-199.881C359.304,-198.527,359.304,-196.782,358.415,-195.428C355.424,-190.874,354.356,-186.854,356.048,-185.162C357.74,-183.47,361.76,-184.538,366.314,-187.529C367.668,-188.418,369.413,-188.418,370.767,-187.529C375.321,-184.538,379.341,-183.47,381.033,-185.162Z" /></g></g></g></g></g><g visibility="hidden" id="Layer 11"><animate repeatCount="indefinite" begin="6.067s" calcMode="discrete" fill="freeze" dur="0.267s" values="visible; visible" keyTimes="0; 1" attributeName="visibility" /><g transform="translate(122.981,488.658)"><g transform="scale(0,0)"><animateTransform repeatCount="indefinite" type="scale" attributeName="transform" dur="5.167s" begin="6.067s" calcMode="spline" values="0 0; 1 1; 0 0; 0 0; 1 1; 0 0; 0 0; 1 1; 0 0; 0 0; 1 1; 0 0" keyTimes="0; 0.065; 0.129; 0.29; 0.355; 0.419; 0.581; 0.645; 0.71; 0.871; 0.935; 1" keySplines="0.333 0 0.667 1; 0.333 0 0.667 1; 0.296 0 0.667 1; 0.333 0 0.667 1; 0.333 0 0.667 1; 0.305 0 0.667 1; 0.333 0 0.667 1; 0.333 0 0.667 1; 0.296 0 0.667 1; 0.333 0 0.667 1; 0.333 0 0.667 1" fill="freeze" /><g transform="translate(417.019,-72.658)"><g id="Group 1"><path fill="#000072" fill-opacity="1" d="M-417.019,87.029C-415.073,87.029,-413.375,84.102,-412.476,79.762C-412.209,78.472,-411.205,77.468,-409.915,77.201C-405.575,76.302,-402.648,74.604,-402.648,72.658C-402.648,70.712,-405.575,69.013,-409.915,68.114C-411.205,67.847,-412.209,66.843,-412.476,65.553C-413.375,61.213,-415.073,58.287,-417.019,58.287C-418.965,58.287,-420.664,61.213,-421.563,65.553C-421.83,66.843,-422.834,67.847,-424.124,68.114C-428.464,69.013,-431.39,70.712,-431.39,72.658C-431.39,74.604,-428.464,76.302,-424.124,77.201C-422.834,77.468,-421.83,78.472,-421.563,79.762C-420.664,84.102,-418.965,87.029,-417.019,87.029Z" /></g></g></g></g></g><g id="Layer 14"><animate repeatCount="indefinite" begin="0.333s" calcMode="discrete" fill="freeze" dur="4.9s" values="visible; hidden" keyTimes="0; 1" attributeName="visibility" /><g transform="translate(122.981,488.658)"><g transform="scale(0.896,0.896)"><animateTransform repeatCount="indefinite" type="scale" attributeName="transform" dur="5.167s" begin="0.067s" calcMode="spline" values="0 0; 1 1; 0 0; 0 0; 1 1; 0 0; 0 0; 1 1; 0 0; 0 0; 1 1; 0 0" keyTimes="0; 0.065; 0.129; 0.29; 0.355; 0.419; 0.581; 0.645; 0.71; 0.871; 0.935; 1" keySplines="0.333 0 0.667 1; 0.333 0 0.667 1; 0.296 0 0.667 1; 0.333 0 0.667 1; 0.333 0 0.667 1; 0.305 0 0.667 1; 0.333 0 0.667 1; 0.333 0 0.667 1; 0.296 0 0.667 1; 0.333 0 0.667 1; 0.333 0 0.667 1" fill="freeze" /><g transform="translate(417.019,-72.658)"><g id="Group 1"><path fill="#000072" fill-opacity="1" d="M-417.019,87.029C-415.073,87.029,-413.375,84.102,-412.476,79.762C-412.209,78.472,-411.205,77.468,-409.915,77.201C-405.575,76.302,-402.648,74.604,-402.648,72.658C-402.648,70.712,-405.575,69.013,-409.915,68.114C-411.205,67.847,-412.209,66.843,-412.476,65.553C-413.375,61.213,-415.073,58.287,-417.019,58.287C-418.965,58.287,-420.664,61.213,-421.563,65.553C-421.83,66.843,-422.834,67.847,-424.124,68.114C-428.464,69.013,-431.39,70.712,-431.39,72.658C-431.39,74.604,-428.464,76.302,-424.124,77.201C-422.834,77.468,-421.83,78.472,-421.563,79.762C-420.664,84.102,-418.965,87.029,-417.019,87.029Z" /></g></g></g></g></g><g visibility="hidden" id="Layer 12"><animate repeatCount="indefinite" begin="0.767s" calcMode="discrete" fill="freeze" dur="5.167s" values="visible; hidden" keyTimes="0; 1" attributeName="visibility" /><g transform="translate(240.486,98.454)"><g transform="scale(0,0)"><animateTransform repeatCount="indefinite" type="scale" attributeName="transform" dur="5.167s" begin="0.767s" calcMode="spline" values="0 0; 1 1; 0 0; 0 0; 1 1; 0 0; 0 0; 1 1; 0 0; 0 0; 1 1; 0 0" keyTimes="0; 0.065; 0.129; 0.29; 0.355; 0.419; 0.581; 0.645; 0.71; 0.871; 0.935; 1" keySplines="0.333 0 0.667 1; 0.333 0 0.667 1; 0.296 0 0.667 1; 0.333 0 0.667 1; 0.333 0 0.667 1; 0.305 0 0.667 1; 0.333 0 0.667 1; 0.333 0 0.667 1; 0.296 0 0.667 1; 0.333 0 0.667 1; 0.333 0 0.667 1" fill="freeze" /><g transform="translate(299.514,317.546)"><g id="Group 1"><path fill="#000072" fill-opacity="1" d="M-309.333,-311.354C-312.753,-316.777,-311.129,-323.946,-305.706,-327.366C-300.283,-330.786,-293.114,-329.161,-289.694,-323.738C-286.274,-318.315,-287.898,-311.146,-293.321,-307.726C-298.744,-304.306,-305.913,-305.931,-309.333,-311.354Z" /></g></g></g></g></g><g visibility="hidden" id="Layer 13"><animate repeatCount="indefinite" begin="1.1s" calcMode="discrete" fill="freeze" dur="5.167s" values="visible; hidden" keyTimes="0; 1" attributeName="visibility" /><g transform="translate(183.408,157.034)"><g transform="scale(0,0)"><animateTransform repeatCount="indefinite" type="scale" attributeName="transform" dur="5.167s" begin="1.1s" calcMode="spline" values="0 0; 1 1; 0 0; 0 0; 1 1; 0 0; 0 0; 1 1; 0 0; 0 0; 1 1; 0 0" keyTimes="0; 0.065; 0.129; 0.29; 0.355; 0.419; 0.581; 0.645; 0.71; 0.871; 0.935; 1" keySplines="0.333 0 0.667 1; 0.333 0 0.667 1; 0.296 0 0.667 1; 0.333 0 0.667 1; 0.333 0 0.667 1; 0.305 0 0.667 1; 0.333 0 0.667 1; 0.333 0 0.667 1; 0.296 0 0.667 1; 0.333 0 0.667 1; 0.333 0 0.667 1" fill="freeze" /><g transform="translate(356.592,258.966)"><g id="Group 1"><path fill="#000072" fill-opacity="1" d="M-363.993,-260.643C-363.067,-264.731,-359.003,-267.293,-354.915,-266.367C-350.827,-265.441,-348.265,-261.378,-349.191,-257.29C-350.117,-253.202,-354.181,-250.639,-358.269,-251.565C-362.357,-252.491,-364.919,-256.555,-363.993,-260.643Z" /></g></g></g></g></g></svg>